<svg width="800" height="600" xmlns="http://www.w3.org/2000/svg" style="background: #f8f8f8;"><rect x="532.6586931264146" y="226.30855023317622" width="131.44754064605877" height="140.79136411699665" 
                     fill="#ecf0f1" stroke="#2c3e50" stroke-width="3"/><line x1="552.6586931264146" y1="226.30855023317622" x2="552.6586931264146" y2="367.09991435017287" 
                       stroke="#bdc3c7" stroke-width="1"/><line x1="572.6586931264146" y1="226.30855023317622" x2="572.6586931264146" y2="367.09991435017287" 
                       stroke="#bdc3c7" stroke-width="1"/><line x1="592.6586931264146" y1="226.30855023317622" x2="592.6586931264146" y2="367.09991435017287" 
                       stroke="#bdc3c7" stroke-width="1"/><line x1="612.6586931264146" y1="226.30855023317622" x2="612.6586931264146" y2="367.09991435017287" 
                       stroke="#bdc3c7" stroke-width="1"/><line x1="632.6586931264146" y1="226.30855023317622" x2="632.6586931264146" y2="367.09991435017287" 
                       stroke="#bdc3c7" stroke-width="1"/><line x1="652.6586931264146" y1="226.30855023317622" x2="652.6586931264146" y2="367.09991435017287" 
                       stroke="#bdc3c7" stroke-width="1"/><line x1="532.6586931264146" y1="246.30855023317622" x2="664.1062337724734" y2="246.30855023317622" 
                       stroke="#bdc3c7" stroke-width="1"/><line x1="532.6586931264146" y1="266.3085502331762" x2="664.1062337724734" y2="266.3085502331762" 
                       stroke="#bdc3c7" stroke-width="1"/><line x1="532.6586931264146" y1="286.3085502331762" x2="664.1062337724734" y2="286.3085502331762" 
                       stroke="#bdc3c7" stroke-width="1"/><line x1="532.6586931264146" y1="306.3085502331762" x2="664.1062337724734" y2="306.3085502331762" 
                       stroke="#bdc3c7" stroke-width="1"/><line x1="532.6586931264146" y1="326.3085502331762" x2="664.1062337724734" y2="326.3085502331762" 
                       stroke="#bdc3c7" stroke-width="1"/><line x1="532.6586931264146" y1="346.3085502331762" x2="664.1062337724734" y2="346.3085502331762" 
                       stroke="#bdc3c7" stroke-width="1"/><line x1="532.6586931264146" y1="366.3085502331762" x2="664.1062337724734" y2="366.3085502331762" 
                       stroke="#bdc3c7" stroke-width="1"/><rect x="532.6586931264146" y="226.30855023317622" width="131.44754064605877" height="140.79136411699665" 
                     fill="#ecf0f1" stroke="#2c3e50" stroke-width="3"/><line x1="552.6586931264146" y1="226.30855023317622" x2="552.6586931264146" y2="367.09991435017287" 
                       stroke="#bdc3c7" stroke-width="1"/><line x1="572.6586931264146" y1="226.30855023317622" x2="572.6586931264146" y2="367.09991435017287" 
                       stroke="#bdc3c7" stroke-width="1"/><line x1="592.6586931264146" y1="226.30855023317622" x2="592.6586931264146" y2="367.09991435017287" 
                       stroke="#bdc3c7" stroke-width="1"/><line x1="612.6586931264146" y1="226.30855023317622" x2="612.6586931264146" y2="367.09991435017287" 
                       stroke="#bdc3c7" stroke-width="1"/><line x1="632.6586931264146" y1="226.30855023317622" x2="632.6586931264146" y2="367.09991435017287" 
                       stroke="#bdc3c7" stroke-width="1"/><line x1="652.6586931264146" y1="226.30855023317622" x2="652.6586931264146" y2="367.09991435017287" 
                       stroke="#bdc3c7" stroke-width="1"/><line x1="532.6586931264146" y1="246.30855023317622" x2="664.1062337724734" y2="246.30855023317622" 
                       stroke="#bdc3c7" stroke-width="1"/><line x1="532.6586931264146" y1="266.3085502331762" x2="664.1062337724734" y2="266.3085502331762" 
                       stroke="#bdc3c7" stroke-width="1"/><line x1="532.6586931264146" y1="286.3085502331762" x2="664.1062337724734" y2="286.3085502331762" 
                       stroke="#bdc3c7" stroke-width="1"/><line x1="532.6586931264146" y1="306.3085502331762" x2="664.1062337724734" y2="306.3085502331762" 
                       stroke="#bdc3c7" stroke-width="1"/><line x1="532.6586931264146" y1="326.3085502331762" x2="664.1062337724734" y2="326.3085502331762" 
                       stroke="#bdc3c7" stroke-width="1"/><line x1="532.6586931264146" y1="346.3085502331762" x2="664.1062337724734" y2="346.3085502331762" 
                       stroke="#bdc3c7" stroke-width="1"/><line x1="532.6586931264146" y1="366.3085502331762" x2="664.1062337724734" y2="366.3085502331762" 
                       stroke="#bdc3c7" stroke-width="1"/><text x="50" y="30" font-family="Arial, sans-serif" font-size="14" font-weight="bold" fill="#2c3e50">
                 PROJECT 1 - MODERN PLAN</text><text x="650" y="580" font-family="Arial, sans-serif" font-size="10" fill="#2c3e50">
                 SCHAAL 1:100</text><g transform="translate(720, 80)">
                 <line x1="0" y1="0" x2="0" y2="-30" stroke="#e74c3c" stroke-width="2"/>
                 <polygon points="0,-30 -5,-20 5,-20" fill="#e74c3c"/>
                 <text x="10" y="-10" font-family="Arial, sans-serif" font-size="10" fill="#2c3e50">N</text>
                 </g></svg>