<svg width="800" height="600" xmlns="http://www.w3.org/2000/svg" style="background: #f8f8f8;"><rect x="218.0505514847183" y="88.0816725143913" width="198.92700076179608" height="133.10679250922476" 
                     fill="#ecf0f1" stroke="#2c3e50" stroke-width="3"/><line x1="238.0505514847183" y1="88.0816725143913" x2="238.0505514847183" y2="221.18846502361606" 
                       stroke="#bdc3c7" stroke-width="1"/><line x1="258.0505514847183" y1="88.0816725143913" x2="258.0505514847183" y2="221.18846502361606" 
                       stroke="#bdc3c7" stroke-width="1"/><line x1="278.0505514847183" y1="88.0816725143913" x2="278.0505514847183" y2="221.18846502361606" 
                       stroke="#bdc3c7" stroke-width="1"/><line x1="298.0505514847183" y1="88.0816725143913" x2="298.0505514847183" y2="221.18846502361606" 
                       stroke="#bdc3c7" stroke-width="1"/><line x1="318.0505514847183" y1="88.0816725143913" x2="318.0505514847183" y2="221.18846502361606" 
                       stroke="#bdc3c7" stroke-width="1"/><line x1="338.0505514847183" y1="88.0816725143913" x2="338.0505514847183" y2="221.18846502361606" 
                       stroke="#bdc3c7" stroke-width="1"/><line x1="358.0505514847183" y1="88.0816725143913" x2="358.0505514847183" y2="221.18846502361606" 
                       stroke="#bdc3c7" stroke-width="1"/><line x1="378.0505514847183" y1="88.0816725143913" x2="378.0505514847183" y2="221.18846502361606" 
                       stroke="#bdc3c7" stroke-width="1"/><line x1="398.0505514847183" y1="88.0816725143913" x2="398.0505514847183" y2="221.18846502361606" 
                       stroke="#bdc3c7" stroke-width="1"/><line x1="218.0505514847183" y1="108.0816725143913" x2="416.9775522465144" y2="108.0816725143913" 
                       stroke="#bdc3c7" stroke-width="1"/><line x1="218.0505514847183" y1="128.0816725143913" x2="416.9775522465144" y2="128.0816725143913" 
                       stroke="#bdc3c7" stroke-width="1"/><line x1="218.0505514847183" y1="148.0816725143913" x2="416.9775522465144" y2="148.0816725143913" 
                       stroke="#bdc3c7" stroke-width="1"/><line x1="218.0505514847183" y1="168.0816725143913" x2="416.9775522465144" y2="168.0816725143913" 
                       stroke="#bdc3c7" stroke-width="1"/><line x1="218.0505514847183" y1="188.0816725143913" x2="416.9775522465144" y2="188.0816725143913" 
                       stroke="#bdc3c7" stroke-width="1"/><line x1="218.0505514847183" y1="208.0816725143913" x2="416.9775522465144" y2="208.0816725143913" 
                       stroke="#bdc3c7" stroke-width="1"/><rect x="218.0505514847183" y="88.0816725143913" width="198.92700076179608" height="133.10679250922476" 
                     fill="#ecf0f1" stroke="#2c3e50" stroke-width="3"/><line x1="238.0505514847183" y1="88.0816725143913" x2="238.0505514847183" y2="221.18846502361606" 
                       stroke="#bdc3c7" stroke-width="1"/><line x1="258.0505514847183" y1="88.0816725143913" x2="258.0505514847183" y2="221.18846502361606" 
                       stroke="#bdc3c7" stroke-width="1"/><line x1="278.0505514847183" y1="88.0816725143913" x2="278.0505514847183" y2="221.18846502361606" 
                       stroke="#bdc3c7" stroke-width="1"/><line x1="298.0505514847183" y1="88.0816725143913" x2="298.0505514847183" y2="221.18846502361606" 
                       stroke="#bdc3c7" stroke-width="1"/><line x1="318.0505514847183" y1="88.0816725143913" x2="318.0505514847183" y2="221.18846502361606" 
                       stroke="#bdc3c7" stroke-width="1"/><line x1="338.0505514847183" y1="88.0816725143913" x2="338.0505514847183" y2="221.18846502361606" 
                       stroke="#bdc3c7" stroke-width="1"/><line x1="358.0505514847183" y1="88.0816725143913" x2="358.0505514847183" y2="221.18846502361606" 
                       stroke="#bdc3c7" stroke-width="1"/><line x1="378.0505514847183" y1="88.0816725143913" x2="378.0505514847183" y2="221.18846502361606" 
                       stroke="#bdc3c7" stroke-width="1"/><line x1="398.0505514847183" y1="88.0816725143913" x2="398.0505514847183" y2="221.18846502361606" 
                       stroke="#bdc3c7" stroke-width="1"/><line x1="218.0505514847183" y1="108.0816725143913" x2="416.9775522465144" y2="108.0816725143913" 
                       stroke="#bdc3c7" stroke-width="1"/><line x1="218.0505514847183" y1="128.0816725143913" x2="416.9775522465144" y2="128.0816725143913" 
                       stroke="#bdc3c7" stroke-width="1"/><line x1="218.0505514847183" y1="148.0816725143913" x2="416.9775522465144" y2="148.0816725143913" 
                       stroke="#bdc3c7" stroke-width="1"/><line x1="218.0505514847183" y1="168.0816725143913" x2="416.9775522465144" y2="168.0816725143913" 
                       stroke="#bdc3c7" stroke-width="1"/><line x1="218.0505514847183" y1="188.0816725143913" x2="416.9775522465144" y2="188.0816725143913" 
                       stroke="#bdc3c7" stroke-width="1"/><line x1="218.0505514847183" y1="208.0816725143913" x2="416.9775522465144" y2="208.0816725143913" 
                       stroke="#bdc3c7" stroke-width="1"/><text x="50" y="30" font-family="Arial, sans-serif" font-size="14" font-weight="bold" fill="#2c3e50">
                 PROJECT 25 - MODERN PLAN</text><text x="650" y="580" font-family="Arial, sans-serif" font-size="10" fill="#2c3e50">
                 SCHAAL 1:100</text><g transform="translate(720, 80)">
                 <line x1="0" y1="0" x2="0" y2="-30" stroke="#e74c3c" stroke-width="2"/>
                 <polygon points="0,-30 -5,-20 5,-20" fill="#e74c3c"/>
                 <text x="10" y="-10" font-family="Arial, sans-serif" font-size="10" fill="#2c3e50">N</text>
                 </g></svg>