<svg width="800" height="600" xmlns="http://www.w3.org/2000/svg" style="background: #f8f8f8;"><rect x="330.9293961874027" y="89.30259244050404" width="189.48399091518695" height="88.26836588512379" 
                     fill="#ecf0f1" stroke="#2c3e50" stroke-width="3"/><line x1="350.9293961874027" y1="89.30259244050404" x2="350.9293961874027" y2="177.57095832562783" 
                       stroke="#bdc3c7" stroke-width="1"/><line x1="370.9293961874027" y1="89.30259244050404" x2="370.9293961874027" y2="177.57095832562783" 
                       stroke="#bdc3c7" stroke-width="1"/><line x1="390.9293961874027" y1="89.30259244050404" x2="390.9293961874027" y2="177.57095832562783" 
                       stroke="#bdc3c7" stroke-width="1"/><line x1="410.9293961874027" y1="89.30259244050404" x2="410.9293961874027" y2="177.57095832562783" 
                       stroke="#bdc3c7" stroke-width="1"/><line x1="430.9293961874027" y1="89.30259244050404" x2="430.9293961874027" y2="177.57095832562783" 
                       stroke="#bdc3c7" stroke-width="1"/><line x1="450.9293961874027" y1="89.30259244050404" x2="450.9293961874027" y2="177.57095832562783" 
                       stroke="#bdc3c7" stroke-width="1"/><line x1="470.9293961874027" y1="89.30259244050404" x2="470.9293961874027" y2="177.57095832562783" 
                       stroke="#bdc3c7" stroke-width="1"/><line x1="490.9293961874027" y1="89.30259244050404" x2="490.9293961874027" y2="177.57095832562783" 
                       stroke="#bdc3c7" stroke-width="1"/><line x1="510.9293961874027" y1="89.30259244050404" x2="510.9293961874027" y2="177.57095832562783" 
                       stroke="#bdc3c7" stroke-width="1"/><line x1="330.9293961874027" y1="109.30259244050404" x2="520.4133871025897" y2="109.30259244050404" 
                       stroke="#bdc3c7" stroke-width="1"/><line x1="330.9293961874027" y1="129.30259244050404" x2="520.4133871025897" y2="129.30259244050404" 
                       stroke="#bdc3c7" stroke-width="1"/><line x1="330.9293961874027" y1="149.30259244050404" x2="520.4133871025897" y2="149.30259244050404" 
                       stroke="#bdc3c7" stroke-width="1"/><line x1="330.9293961874027" y1="169.30259244050404" x2="520.4133871025897" y2="169.30259244050404" 
                       stroke="#bdc3c7" stroke-width="1"/><rect x="330.9293961874027" y="89.30259244050404" width="189.48399091518695" height="88.26836588512379" 
                     fill="#ecf0f1" stroke="#2c3e50" stroke-width="3"/><line x1="350.9293961874027" y1="89.30259244050404" x2="350.9293961874027" y2="177.57095832562783" 
                       stroke="#bdc3c7" stroke-width="1"/><line x1="370.9293961874027" y1="89.30259244050404" x2="370.9293961874027" y2="177.57095832562783" 
                       stroke="#bdc3c7" stroke-width="1"/><line x1="390.9293961874027" y1="89.30259244050404" x2="390.9293961874027" y2="177.57095832562783" 
                       stroke="#bdc3c7" stroke-width="1"/><line x1="410.9293961874027" y1="89.30259244050404" x2="410.9293961874027" y2="177.57095832562783" 
                       stroke="#bdc3c7" stroke-width="1"/><line x1="430.9293961874027" y1="89.30259244050404" x2="430.9293961874027" y2="177.57095832562783" 
                       stroke="#bdc3c7" stroke-width="1"/><line x1="450.9293961874027" y1="89.30259244050404" x2="450.9293961874027" y2="177.57095832562783" 
                       stroke="#bdc3c7" stroke-width="1"/><line x1="470.9293961874027" y1="89.30259244050404" x2="470.9293961874027" y2="177.57095832562783" 
                       stroke="#bdc3c7" stroke-width="1"/><line x1="490.9293961874027" y1="89.30259244050404" x2="490.9293961874027" y2="177.57095832562783" 
                       stroke="#bdc3c7" stroke-width="1"/><line x1="510.9293961874027" y1="89.30259244050404" x2="510.9293961874027" y2="177.57095832562783" 
                       stroke="#bdc3c7" stroke-width="1"/><line x1="330.9293961874027" y1="109.30259244050404" x2="520.4133871025897" y2="109.30259244050404" 
                       stroke="#bdc3c7" stroke-width="1"/><line x1="330.9293961874027" y1="129.30259244050404" x2="520.4133871025897" y2="129.30259244050404" 
                       stroke="#bdc3c7" stroke-width="1"/><line x1="330.9293961874027" y1="149.30259244050404" x2="520.4133871025897" y2="149.30259244050404" 
                       stroke="#bdc3c7" stroke-width="1"/><line x1="330.9293961874027" y1="169.30259244050404" x2="520.4133871025897" y2="169.30259244050404" 
                       stroke="#bdc3c7" stroke-width="1"/><rect x="330.9293961874027" y="89.30259244050404" width="189.48399091518695" height="88.26836588512379" 
                     fill="#ecf0f1" stroke="#2c3e50" stroke-width="3"/><line x1="350.9293961874027" y1="89.30259244050404" x2="350.9293961874027" y2="177.57095832562783" 
                       stroke="#bdc3c7" stroke-width="1"/><line x1="370.9293961874027" y1="89.30259244050404" x2="370.9293961874027" y2="177.57095832562783" 
                       stroke="#bdc3c7" stroke-width="1"/><line x1="390.9293961874027" y1="89.30259244050404" x2="390.9293961874027" y2="177.57095832562783" 
                       stroke="#bdc3c7" stroke-width="1"/><line x1="410.9293961874027" y1="89.30259244050404" x2="410.9293961874027" y2="177.57095832562783" 
                       stroke="#bdc3c7" stroke-width="1"/><line x1="430.9293961874027" y1="89.30259244050404" x2="430.9293961874027" y2="177.57095832562783" 
                       stroke="#bdc3c7" stroke-width="1"/><line x1="450.9293961874027" y1="89.30259244050404" x2="450.9293961874027" y2="177.57095832562783" 
                       stroke="#bdc3c7" stroke-width="1"/><line x1="470.9293961874027" y1="89.30259244050404" x2="470.9293961874027" y2="177.57095832562783" 
                       stroke="#bdc3c7" stroke-width="1"/><line x1="490.9293961874027" y1="89.30259244050404" x2="490.9293961874027" y2="177.57095832562783" 
                       stroke="#bdc3c7" stroke-width="1"/><line x1="510.9293961874027" y1="89.30259244050404" x2="510.9293961874027" y2="177.57095832562783" 
                       stroke="#bdc3c7" stroke-width="1"/><line x1="330.9293961874027" y1="109.30259244050404" x2="520.4133871025897" y2="109.30259244050404" 
                       stroke="#bdc3c7" stroke-width="1"/><line x1="330.9293961874027" y1="129.30259244050404" x2="520.4133871025897" y2="129.30259244050404" 
                       stroke="#bdc3c7" stroke-width="1"/><line x1="330.9293961874027" y1="149.30259244050404" x2="520.4133871025897" y2="149.30259244050404" 
                       stroke="#bdc3c7" stroke-width="1"/><line x1="330.9293961874027" y1="169.30259244050404" x2="520.4133871025897" y2="169.30259244050404" 
                       stroke="#bdc3c7" stroke-width="1"/><rect x="330.9293961874027" y="89.30259244050404" width="189.48399091518695" height="88.26836588512379" 
                     fill="#ecf0f1" stroke="#2c3e50" stroke-width="3"/><line x1="350.9293961874027" y1="89.30259244050404" x2="350.9293961874027" y2="177.57095832562783" 
                       stroke="#bdc3c7" stroke-width="1"/><line x1="370.9293961874027" y1="89.30259244050404" x2="370.9293961874027" y2="177.57095832562783" 
                       stroke="#bdc3c7" stroke-width="1"/><line x1="390.9293961874027" y1="89.30259244050404" x2="390.9293961874027" y2="177.57095832562783" 
                       stroke="#bdc3c7" stroke-width="1"/><line x1="410.9293961874027" y1="89.30259244050404" x2="410.9293961874027" y2="177.57095832562783" 
                       stroke="#bdc3c7" stroke-width="1"/><line x1="430.9293961874027" y1="89.30259244050404" x2="430.9293961874027" y2="177.57095832562783" 
                       stroke="#bdc3c7" stroke-width="1"/><line x1="450.9293961874027" y1="89.30259244050404" x2="450.9293961874027" y2="177.57095832562783" 
                       stroke="#bdc3c7" stroke-width="1"/><line x1="470.9293961874027" y1="89.30259244050404" x2="470.9293961874027" y2="177.57095832562783" 
                       stroke="#bdc3c7" stroke-width="1"/><line x1="490.9293961874027" y1="89.30259244050404" x2="490.9293961874027" y2="177.57095832562783" 
                       stroke="#bdc3c7" stroke-width="1"/><line x1="510.9293961874027" y1="89.30259244050404" x2="510.9293961874027" y2="177.57095832562783" 
                       stroke="#bdc3c7" stroke-width="1"/><line x1="330.9293961874027" y1="109.30259244050404" x2="520.4133871025897" y2="109.30259244050404" 
                       stroke="#bdc3c7" stroke-width="1"/><line x1="330.9293961874027" y1="129.30259244050404" x2="520.4133871025897" y2="129.30259244050404" 
                       stroke="#bdc3c7" stroke-width="1"/><line x1="330.9293961874027" y1="149.30259244050404" x2="520.4133871025897" y2="149.30259244050404" 
                       stroke="#bdc3c7" stroke-width="1"/><line x1="330.9293961874027" y1="169.30259244050404" x2="520.4133871025897" y2="169.30259244050404" 
                       stroke="#bdc3c7" stroke-width="1"/><rect x="330.9293961874027" y="89.30259244050404" width="189.48399091518695" height="88.26836588512379" 
                     fill="#ecf0f1" stroke="#2c3e50" stroke-width="3"/><line x1="350.9293961874027" y1="89.30259244050404" x2="350.9293961874027" y2="177.57095832562783" 
                       stroke="#bdc3c7" stroke-width="1"/><line x1="370.9293961874027" y1="89.30259244050404" x2="370.9293961874027" y2="177.57095832562783" 
                       stroke="#bdc3c7" stroke-width="1"/><line x1="390.9293961874027" y1="89.30259244050404" x2="390.9293961874027" y2="177.57095832562783" 
                       stroke="#bdc3c7" stroke-width="1"/><line x1="410.9293961874027" y1="89.30259244050404" x2="410.9293961874027" y2="177.57095832562783" 
                       stroke="#bdc3c7" stroke-width="1"/><line x1="430.9293961874027" y1="89.30259244050404" x2="430.9293961874027" y2="177.57095832562783" 
                       stroke="#bdc3c7" stroke-width="1"/><line x1="450.9293961874027" y1="89.30259244050404" x2="450.9293961874027" y2="177.57095832562783" 
                       stroke="#bdc3c7" stroke-width="1"/><line x1="470.9293961874027" y1="89.30259244050404" x2="470.9293961874027" y2="177.57095832562783" 
                       stroke="#bdc3c7" stroke-width="1"/><line x1="490.9293961874027" y1="89.30259244050404" x2="490.9293961874027" y2="177.57095832562783" 
                       stroke="#bdc3c7" stroke-width="1"/><line x1="510.9293961874027" y1="89.30259244050404" x2="510.9293961874027" y2="177.57095832562783" 
                       stroke="#bdc3c7" stroke-width="1"/><line x1="330.9293961874027" y1="109.30259244050404" x2="520.4133871025897" y2="109.30259244050404" 
                       stroke="#bdc3c7" stroke-width="1"/><line x1="330.9293961874027" y1="129.30259244050404" x2="520.4133871025897" y2="129.30259244050404" 
                       stroke="#bdc3c7" stroke-width="1"/><line x1="330.9293961874027" y1="149.30259244050404" x2="520.4133871025897" y2="149.30259244050404" 
                       stroke="#bdc3c7" stroke-width="1"/><line x1="330.9293961874027" y1="169.30259244050404" x2="520.4133871025897" y2="169.30259244050404" 
                       stroke="#bdc3c7" stroke-width="1"/><text x="50" y="30" font-family="Arial, sans-serif" font-size="14" font-weight="bold" fill="#2c3e50">
                 PROJECT 13 - MODERN PLAN</text><text x="650" y="580" font-family="Arial, sans-serif" font-size="10" fill="#2c3e50">
                 SCHAAL 1:100</text><g transform="translate(720, 80)">
                 <line x1="0" y1="0" x2="0" y2="-30" stroke="#e74c3c" stroke-width="2"/>
                 <polygon points="0,-30 -5,-20 5,-20" fill="#e74c3c"/>
                 <text x="10" y="-10" font-family="Arial, sans-serif" font-size="10" fill="#2c3e50">N</text>
                 </g></svg>