<svg width="800" height="600" xmlns="http://www.w3.org/2000/svg" style="background: #f8f8f8;"><rect x="202.20070963459875" y="178.53606729031526" width="395.5985807308025" height="242.92786541936948" 
                   fill="none" stroke="#2c3e50" stroke-width="6"/><line x1="334.0669032115329" y1="178.53606729031526" x2="334.0669032115329" y2="421.46393270968474" 
                     stroke="#2c3e50" stroke-width="4"/><line x1="465.9330967884671" y1="178.53606729031526" x2="465.9330967884671" y2="421.46393270968474" 
                     stroke="#2c3e50" stroke-width="4"/><rect x="359.8747996489133" y="415.46393270968474" width="40" height="6" fill="#8b4513"/><rect x="359.8747996489133" y="415.46393270968474" width="40" height="6" fill="#8b4513"/><rect x="228.4039192745318" y="296.4429963814796" width="20" height="15" 
                     fill="#3498db" stroke="#2c3e50" stroke-width="2"/><rect x="228.4039192745318" y="296.4429963814796" width="20" height="15" 
                     fill="#3498db" stroke="#2c3e50" stroke-width="2"/><rect x="228.4039192745318" y="296.4429963814796" width="20" height="15" 
                     fill="#3498db" stroke="#2c3e50" stroke-width="2"/><rect x="228.4039192745318" y="296.4429963814796" width="20" height="15" 
                     fill="#3498db" stroke="#2c3e50" stroke-width="2"/><rect x="228.4039192745318" y="296.4429963814796" width="20" height="15" 
                     fill="#3498db" stroke="#2c3e50" stroke-width="2"/><rect x="228.4039192745318" y="296.4429963814796" width="20" height="15" 
                     fill="#3498db" stroke="#2c3e50" stroke-width="2"/><text x="50" y="30" font-family="Arial, sans-serif" font-size="14" font-weight="bold" fill="#2c3e50">
                 PROJECT 28 - RESIDENTIAL PLAN</text><text x="650" y="580" font-family="Arial, sans-serif" font-size="10" fill="#2c3e50">
                 SCHAAL 1:100</text><g transform="translate(720, 80)">
                 <line x1="0" y1="0" x2="0" y2="-30" stroke="#e74c3c" stroke-width="2"/>
                 <polygon points="0,-30 -5,-20 5,-20" fill="#e74c3c"/>
                 <text x="10" y="-10" font-family="Arial, sans-serif" font-size="10" fill="#2c3e50">N</text>
                 </g></svg>