<svg width="800" height="600" xmlns="http://www.w3.org/2000/svg" style="background: #f8f8f8;"><rect x="322.39862153324464" y="253.85124714531707" width="133.27811244816985" height="85.22084975401413" 
                     fill="#ecf0f1" stroke="#2c3e50" stroke-width="3"/><line x1="342.39862153324464" y1="253.85124714531707" x2="342.39862153324464" y2="339.0720968993312" 
                       stroke="#bdc3c7" stroke-width="1"/><line x1="362.39862153324464" y1="253.85124714531707" x2="362.39862153324464" y2="339.0720968993312" 
                       stroke="#bdc3c7" stroke-width="1"/><line x1="382.39862153324464" y1="253.85124714531707" x2="382.39862153324464" y2="339.0720968993312" 
                       stroke="#bdc3c7" stroke-width="1"/><line x1="402.39862153324464" y1="253.85124714531707" x2="402.39862153324464" y2="339.0720968993312" 
                       stroke="#bdc3c7" stroke-width="1"/><line x1="422.39862153324464" y1="253.85124714531707" x2="422.39862153324464" y2="339.0720968993312" 
                       stroke="#bdc3c7" stroke-width="1"/><line x1="442.39862153324464" y1="253.85124714531707" x2="442.39862153324464" y2="339.0720968993312" 
                       stroke="#bdc3c7" stroke-width="1"/><line x1="322.39862153324464" y1="273.8512471453171" x2="455.6767339814145" y2="273.8512471453171" 
                       stroke="#bdc3c7" stroke-width="1"/><line x1="322.39862153324464" y1="293.8512471453171" x2="455.6767339814145" y2="293.8512471453171" 
                       stroke="#bdc3c7" stroke-width="1"/><line x1="322.39862153324464" y1="313.8512471453171" x2="455.6767339814145" y2="313.8512471453171" 
                       stroke="#bdc3c7" stroke-width="1"/><line x1="322.39862153324464" y1="333.8512471453171" x2="455.6767339814145" y2="333.8512471453171" 
                       stroke="#bdc3c7" stroke-width="1"/><rect x="322.39862153324464" y="253.85124714531707" width="133.27811244816985" height="85.22084975401413" 
                     fill="#ecf0f1" stroke="#2c3e50" stroke-width="3"/><line x1="342.39862153324464" y1="253.85124714531707" x2="342.39862153324464" y2="339.0720968993312" 
                       stroke="#bdc3c7" stroke-width="1"/><line x1="362.39862153324464" y1="253.85124714531707" x2="362.39862153324464" y2="339.0720968993312" 
                       stroke="#bdc3c7" stroke-width="1"/><line x1="382.39862153324464" y1="253.85124714531707" x2="382.39862153324464" y2="339.0720968993312" 
                       stroke="#bdc3c7" stroke-width="1"/><line x1="402.39862153324464" y1="253.85124714531707" x2="402.39862153324464" y2="339.0720968993312" 
                       stroke="#bdc3c7" stroke-width="1"/><line x1="422.39862153324464" y1="253.85124714531707" x2="422.39862153324464" y2="339.0720968993312" 
                       stroke="#bdc3c7" stroke-width="1"/><line x1="442.39862153324464" y1="253.85124714531707" x2="442.39862153324464" y2="339.0720968993312" 
                       stroke="#bdc3c7" stroke-width="1"/><line x1="322.39862153324464" y1="273.8512471453171" x2="455.6767339814145" y2="273.8512471453171" 
                       stroke="#bdc3c7" stroke-width="1"/><line x1="322.39862153324464" y1="293.8512471453171" x2="455.6767339814145" y2="293.8512471453171" 
                       stroke="#bdc3c7" stroke-width="1"/><line x1="322.39862153324464" y1="313.8512471453171" x2="455.6767339814145" y2="313.8512471453171" 
                       stroke="#bdc3c7" stroke-width="1"/><line x1="322.39862153324464" y1="333.8512471453171" x2="455.6767339814145" y2="333.8512471453171" 
                       stroke="#bdc3c7" stroke-width="1"/><text x="50" y="30" font-family="Arial, sans-serif" font-size="14" font-weight="bold" fill="#2c3e50">
                 PROJECT 45 - MODERN PLAN</text><text x="650" y="580" font-family="Arial, sans-serif" font-size="10" fill="#2c3e50">
                 SCHAAL 1:100</text><g transform="translate(720, 80)">
                 <line x1="0" y1="0" x2="0" y2="-30" stroke="#e74c3c" stroke-width="2"/>
                 <polygon points="0,-30 -5,-20 5,-20" fill="#e74c3c"/>
                 <text x="10" y="-10" font-family="Arial, sans-serif" font-size="10" fill="#2c3e50">N</text>
                 </g></svg>