<svg width="800" height="600" xmlns="http://www.w3.org/2000/svg" style="background: #f8f8f8;"><rect x="165.2304365996315" y="179.72911797824054" width="469.539126800737" height="240.54176404351892" 
                   fill="none" stroke="#2c3e50" stroke-width="6"/><line x1="282.61521829981575" y1="179.72911797824054" x2="282.61521829981575" y2="420.27088202175946" 
                     stroke="#2c3e50" stroke-width="4"/><line x1="400" y1="179.72911797824054" x2="400" y2="420.27088202175946" 
                     stroke="#2c3e50" stroke-width="4"/><line x1="517.3847817001842" y1="179.72911797824054" x2="517.3847817001842" y2="420.27088202175946" 
                     stroke="#2c3e50" stroke-width="4"/><rect x="459.840187588221" y="414.27088202175946" width="40" height="6" fill="#8b4513"/><rect x="459.840187588221" y="414.27088202175946" width="40" height="6" fill="#8b4513"/><rect x="459.840187588221" y="414.27088202175946" width="40" height="6" fill="#8b4513"/><rect x="460.065211846341" y="387.9965732204464" width="20" height="15" 
                     fill="#3498db" stroke="#2c3e50" stroke-width="2"/><rect x="460.065211846341" y="387.9965732204464" width="20" height="15" 
                     fill="#3498db" stroke="#2c3e50" stroke-width="2"/><rect x="460.065211846341" y="387.9965732204464" width="20" height="15" 
                     fill="#3498db" stroke="#2c3e50" stroke-width="2"/><text x="50" y="30" font-family="Arial, sans-serif" font-size="14" font-weight="bold" fill="#2c3e50">
                 PROJECT 20 - RESIDENTIAL PLAN</text><text x="650" y="580" font-family="Arial, sans-serif" font-size="10" fill="#2c3e50">
                 SCHAAL 1:100</text><g transform="translate(720, 80)">
                 <line x1="0" y1="0" x2="0" y2="-30" stroke="#e74c3c" stroke-width="2"/>
                 <polygon points="0,-30 -5,-20 5,-20" fill="#e74c3c"/>
                 <text x="10" y="-10" font-family="Arial, sans-serif" font-size="10" fill="#2c3e50">N</text>
                 </g></svg>