<svg width="800" height="600" xmlns="http://www.w3.org/2000/svg" style="background: #f8f8f8;"><rect x="227.6144532743274" y="180.97357236488278" width="344.7710934513452" height="238.05285527023443" 
                   fill="none" stroke="#2c3e50" stroke-width="6"/><line x1="313.8072266371637" y1="180.97357236488278" x2="313.8072266371637" y2="419.0264276351172" 
                     stroke="#2c3e50" stroke-width="4"/><line x1="400" y1="180.97357236488278" x2="400" y2="419.0264276351172" 
                     stroke="#2c3e50" stroke-width="4"/><line x1="486.1927733628363" y1="180.97357236488278" x2="486.1927733628363" y2="419.0264276351172" 
                     stroke="#2c3e50" stroke-width="4"/><line x1="227.6144532743274" y1="300" x2="572.3855467256726" y2="300" 
                     stroke="#2c3e50" stroke-width="4"/><rect x="259.81567422754017" y="413.0264276351172" width="40" height="6" fill="#8b4513"/><rect x="259.81567422754017" y="413.0264276351172" width="40" height="6" fill="#8b4513"/><rect x="248.01338473107396" y="252.61131160403977" width="20" height="15" 
                     fill="#3498db" stroke="#2c3e50" stroke-width="2"/><rect x="248.01338473107396" y="252.61131160403977" width="20" height="15" 
                     fill="#3498db" stroke="#2c3e50" stroke-width="2"/><rect x="248.01338473107396" y="252.61131160403977" width="20" height="15" 
                     fill="#3498db" stroke="#2c3e50" stroke-width="2"/><rect x="248.01338473107396" y="252.61131160403977" width="20" height="15" 
                     fill="#3498db" stroke="#2c3e50" stroke-width="2"/><rect x="248.01338473107396" y="252.61131160403977" width="20" height="15" 
                     fill="#3498db" stroke="#2c3e50" stroke-width="2"/><rect x="248.01338473107396" y="252.61131160403977" width="20" height="15" 
                     fill="#3498db" stroke="#2c3e50" stroke-width="2"/><rect x="248.01338473107396" y="252.61131160403977" width="20" height="15" 
                     fill="#3498db" stroke="#2c3e50" stroke-width="2"/><text x="50" y="30" font-family="Arial, sans-serif" font-size="14" font-weight="bold" fill="#2c3e50">
                 PROJECT 16 - RESIDENTIAL PLAN</text><text x="650" y="580" font-family="Arial, sans-serif" font-size="10" fill="#2c3e50">
                 SCHAAL 1:100</text><g transform="translate(720, 80)">
                 <line x1="0" y1="0" x2="0" y2="-30" stroke="#e74c3c" stroke-width="2"/>
                 <polygon points="0,-30 -5,-20 5,-20" fill="#e74c3c"/>
                 <text x="10" y="-10" font-family="Arial, sans-serif" font-size="10" fill="#2c3e50">N</text>
                 </g></svg>