<svg width="800" height="600" xmlns="http://www.w3.org/2000/svg" style="background: #f8f8f8;"><rect x="191.22077577435815" y="111.37613110297107" width="160.3478555926813" height="147.10209667346135" 
                     fill="#ecf0f1" stroke="#2c3e50" stroke-width="3"/><line x1="211.22077577435815" y1="111.37613110297107" x2="211.22077577435815" y2="258.4782277764324" 
                       stroke="#bdc3c7" stroke-width="1"/><line x1="231.22077577435815" y1="111.37613110297107" x2="231.22077577435815" y2="258.4782277764324" 
                       stroke="#bdc3c7" stroke-width="1"/><line x1="251.22077577435815" y1="111.37613110297107" x2="251.22077577435815" y2="258.4782277764324" 
                       stroke="#bdc3c7" stroke-width="1"/><line x1="271.2207757743581" y1="111.37613110297107" x2="271.2207757743581" y2="258.4782277764324" 
                       stroke="#bdc3c7" stroke-width="1"/><line x1="291.2207757743581" y1="111.37613110297107" x2="291.2207757743581" y2="258.4782277764324" 
                       stroke="#bdc3c7" stroke-width="1"/><line x1="311.2207757743581" y1="111.37613110297107" x2="311.2207757743581" y2="258.4782277764324" 
                       stroke="#bdc3c7" stroke-width="1"/><line x1="331.2207757743581" y1="111.37613110297107" x2="331.2207757743581" y2="258.4782277764324" 
                       stroke="#bdc3c7" stroke-width="1"/><line x1="351.2207757743581" y1="111.37613110297107" x2="351.2207757743581" y2="258.4782277764324" 
                       stroke="#bdc3c7" stroke-width="1"/><line x1="191.22077577435815" y1="131.37613110297107" x2="351.5686313670394" y2="131.37613110297107" 
                       stroke="#bdc3c7" stroke-width="1"/><line x1="191.22077577435815" y1="151.37613110297107" x2="351.5686313670394" y2="151.37613110297107" 
                       stroke="#bdc3c7" stroke-width="1"/><line x1="191.22077577435815" y1="171.37613110297107" x2="351.5686313670394" y2="171.37613110297107" 
                       stroke="#bdc3c7" stroke-width="1"/><line x1="191.22077577435815" y1="191.37613110297107" x2="351.5686313670394" y2="191.37613110297107" 
                       stroke="#bdc3c7" stroke-width="1"/><line x1="191.22077577435815" y1="211.37613110297107" x2="351.5686313670394" y2="211.37613110297107" 
                       stroke="#bdc3c7" stroke-width="1"/><line x1="191.22077577435815" y1="231.37613110297107" x2="351.5686313670394" y2="231.37613110297107" 
                       stroke="#bdc3c7" stroke-width="1"/><line x1="191.22077577435815" y1="251.37613110297107" x2="351.5686313670394" y2="251.37613110297107" 
                       stroke="#bdc3c7" stroke-width="1"/><rect x="191.22077577435815" y="111.37613110297107" width="160.3478555926813" height="147.10209667346135" 
                     fill="#ecf0f1" stroke="#2c3e50" stroke-width="3"/><line x1="211.22077577435815" y1="111.37613110297107" x2="211.22077577435815" y2="258.4782277764324" 
                       stroke="#bdc3c7" stroke-width="1"/><line x1="231.22077577435815" y1="111.37613110297107" x2="231.22077577435815" y2="258.4782277764324" 
                       stroke="#bdc3c7" stroke-width="1"/><line x1="251.22077577435815" y1="111.37613110297107" x2="251.22077577435815" y2="258.4782277764324" 
                       stroke="#bdc3c7" stroke-width="1"/><line x1="271.2207757743581" y1="111.37613110297107" x2="271.2207757743581" y2="258.4782277764324" 
                       stroke="#bdc3c7" stroke-width="1"/><line x1="291.2207757743581" y1="111.37613110297107" x2="291.2207757743581" y2="258.4782277764324" 
                       stroke="#bdc3c7" stroke-width="1"/><line x1="311.2207757743581" y1="111.37613110297107" x2="311.2207757743581" y2="258.4782277764324" 
                       stroke="#bdc3c7" stroke-width="1"/><line x1="331.2207757743581" y1="111.37613110297107" x2="331.2207757743581" y2="258.4782277764324" 
                       stroke="#bdc3c7" stroke-width="1"/><line x1="351.2207757743581" y1="111.37613110297107" x2="351.2207757743581" y2="258.4782277764324" 
                       stroke="#bdc3c7" stroke-width="1"/><line x1="191.22077577435815" y1="131.37613110297107" x2="351.5686313670394" y2="131.37613110297107" 
                       stroke="#bdc3c7" stroke-width="1"/><line x1="191.22077577435815" y1="151.37613110297107" x2="351.5686313670394" y2="151.37613110297107" 
                       stroke="#bdc3c7" stroke-width="1"/><line x1="191.22077577435815" y1="171.37613110297107" x2="351.5686313670394" y2="171.37613110297107" 
                       stroke="#bdc3c7" stroke-width="1"/><line x1="191.22077577435815" y1="191.37613110297107" x2="351.5686313670394" y2="191.37613110297107" 
                       stroke="#bdc3c7" stroke-width="1"/><line x1="191.22077577435815" y1="211.37613110297107" x2="351.5686313670394" y2="211.37613110297107" 
                       stroke="#bdc3c7" stroke-width="1"/><line x1="191.22077577435815" y1="231.37613110297107" x2="351.5686313670394" y2="231.37613110297107" 
                       stroke="#bdc3c7" stroke-width="1"/><line x1="191.22077577435815" y1="251.37613110297107" x2="351.5686313670394" y2="251.37613110297107" 
                       stroke="#bdc3c7" stroke-width="1"/><text x="50" y="30" font-family="Arial, sans-serif" font-size="14" font-weight="bold" fill="#2c3e50">
                 PROJECT 5 - MODERN PLAN</text><text x="650" y="580" font-family="Arial, sans-serif" font-size="10" fill="#2c3e50">
                 SCHAAL 1:100</text><g transform="translate(720, 80)">
                 <line x1="0" y1="0" x2="0" y2="-30" stroke="#e74c3c" stroke-width="2"/>
                 <polygon points="0,-30 -5,-20 5,-20" fill="#e74c3c"/>
                 <text x="10" y="-10" font-family="Arial, sans-serif" font-size="10" fill="#2c3e50">N</text>
                 </g></svg>