<svg width="800" height="600" xmlns="http://www.w3.org/2000/svg" style="background: #f8f8f8;"><rect x="503.24484492412887" y="51.32854167568492" width="174.23436113440403" height="114.39320531344492" 
                     fill="#ecf0f1" stroke="#2c3e50" stroke-width="3"/><line x1="523.2448449241289" y1="51.32854167568492" x2="523.2448449241289" y2="165.72174698912983" 
                       stroke="#bdc3c7" stroke-width="1"/><line x1="543.2448449241289" y1="51.32854167568492" x2="543.2448449241289" y2="165.72174698912983" 
                       stroke="#bdc3c7" stroke-width="1"/><line x1="563.2448449241289" y1="51.32854167568492" x2="563.2448449241289" y2="165.72174698912983" 
                       stroke="#bdc3c7" stroke-width="1"/><line x1="583.2448449241289" y1="51.32854167568492" x2="583.2448449241289" y2="165.72174698912983" 
                       stroke="#bdc3c7" stroke-width="1"/><line x1="603.2448449241289" y1="51.32854167568492" x2="603.2448449241289" y2="165.72174698912983" 
                       stroke="#bdc3c7" stroke-width="1"/><line x1="623.2448449241289" y1="51.32854167568492" x2="623.2448449241289" y2="165.72174698912983" 
                       stroke="#bdc3c7" stroke-width="1"/><line x1="643.2448449241289" y1="51.32854167568492" x2="643.2448449241289" y2="165.72174698912983" 
                       stroke="#bdc3c7" stroke-width="1"/><line x1="663.2448449241289" y1="51.32854167568492" x2="663.2448449241289" y2="165.72174698912983" 
                       stroke="#bdc3c7" stroke-width="1"/><line x1="503.24484492412887" y1="71.32854167568492" x2="677.4792060585329" y2="71.32854167568492" 
                       stroke="#bdc3c7" stroke-width="1"/><line x1="503.24484492412887" y1="91.32854167568492" x2="677.4792060585329" y2="91.32854167568492" 
                       stroke="#bdc3c7" stroke-width="1"/><line x1="503.24484492412887" y1="111.32854167568492" x2="677.4792060585329" y2="111.32854167568492" 
                       stroke="#bdc3c7" stroke-width="1"/><line x1="503.24484492412887" y1="131.3285416756849" x2="677.4792060585329" y2="131.3285416756849" 
                       stroke="#bdc3c7" stroke-width="1"/><line x1="503.24484492412887" y1="151.3285416756849" x2="677.4792060585329" y2="151.3285416756849" 
                       stroke="#bdc3c7" stroke-width="1"/><rect x="503.24484492412887" y="51.32854167568492" width="174.23436113440403" height="114.39320531344492" 
                     fill="#ecf0f1" stroke="#2c3e50" stroke-width="3"/><line x1="523.2448449241289" y1="51.32854167568492" x2="523.2448449241289" y2="165.72174698912983" 
                       stroke="#bdc3c7" stroke-width="1"/><line x1="543.2448449241289" y1="51.32854167568492" x2="543.2448449241289" y2="165.72174698912983" 
                       stroke="#bdc3c7" stroke-width="1"/><line x1="563.2448449241289" y1="51.32854167568492" x2="563.2448449241289" y2="165.72174698912983" 
                       stroke="#bdc3c7" stroke-width="1"/><line x1="583.2448449241289" y1="51.32854167568492" x2="583.2448449241289" y2="165.72174698912983" 
                       stroke="#bdc3c7" stroke-width="1"/><line x1="603.2448449241289" y1="51.32854167568492" x2="603.2448449241289" y2="165.72174698912983" 
                       stroke="#bdc3c7" stroke-width="1"/><line x1="623.2448449241289" y1="51.32854167568492" x2="623.2448449241289" y2="165.72174698912983" 
                       stroke="#bdc3c7" stroke-width="1"/><line x1="643.2448449241289" y1="51.32854167568492" x2="643.2448449241289" y2="165.72174698912983" 
                       stroke="#bdc3c7" stroke-width="1"/><line x1="663.2448449241289" y1="51.32854167568492" x2="663.2448449241289" y2="165.72174698912983" 
                       stroke="#bdc3c7" stroke-width="1"/><line x1="503.24484492412887" y1="71.32854167568492" x2="677.4792060585329" y2="71.32854167568492" 
                       stroke="#bdc3c7" stroke-width="1"/><line x1="503.24484492412887" y1="91.32854167568492" x2="677.4792060585329" y2="91.32854167568492" 
                       stroke="#bdc3c7" stroke-width="1"/><line x1="503.24484492412887" y1="111.32854167568492" x2="677.4792060585329" y2="111.32854167568492" 
                       stroke="#bdc3c7" stroke-width="1"/><line x1="503.24484492412887" y1="131.3285416756849" x2="677.4792060585329" y2="131.3285416756849" 
                       stroke="#bdc3c7" stroke-width="1"/><line x1="503.24484492412887" y1="151.3285416756849" x2="677.4792060585329" y2="151.3285416756849" 
                       stroke="#bdc3c7" stroke-width="1"/><rect x="503.24484492412887" y="51.32854167568492" width="174.23436113440403" height="114.39320531344492" 
                     fill="#ecf0f1" stroke="#2c3e50" stroke-width="3"/><line x1="523.2448449241289" y1="51.32854167568492" x2="523.2448449241289" y2="165.72174698912983" 
                       stroke="#bdc3c7" stroke-width="1"/><line x1="543.2448449241289" y1="51.32854167568492" x2="543.2448449241289" y2="165.72174698912983" 
                       stroke="#bdc3c7" stroke-width="1"/><line x1="563.2448449241289" y1="51.32854167568492" x2="563.2448449241289" y2="165.72174698912983" 
                       stroke="#bdc3c7" stroke-width="1"/><line x1="583.2448449241289" y1="51.32854167568492" x2="583.2448449241289" y2="165.72174698912983" 
                       stroke="#bdc3c7" stroke-width="1"/><line x1="603.2448449241289" y1="51.32854167568492" x2="603.2448449241289" y2="165.72174698912983" 
                       stroke="#bdc3c7" stroke-width="1"/><line x1="623.2448449241289" y1="51.32854167568492" x2="623.2448449241289" y2="165.72174698912983" 
                       stroke="#bdc3c7" stroke-width="1"/><line x1="643.2448449241289" y1="51.32854167568492" x2="643.2448449241289" y2="165.72174698912983" 
                       stroke="#bdc3c7" stroke-width="1"/><line x1="663.2448449241289" y1="51.32854167568492" x2="663.2448449241289" y2="165.72174698912983" 
                       stroke="#bdc3c7" stroke-width="1"/><line x1="503.24484492412887" y1="71.32854167568492" x2="677.4792060585329" y2="71.32854167568492" 
                       stroke="#bdc3c7" stroke-width="1"/><line x1="503.24484492412887" y1="91.32854167568492" x2="677.4792060585329" y2="91.32854167568492" 
                       stroke="#bdc3c7" stroke-width="1"/><line x1="503.24484492412887" y1="111.32854167568492" x2="677.4792060585329" y2="111.32854167568492" 
                       stroke="#bdc3c7" stroke-width="1"/><line x1="503.24484492412887" y1="131.3285416756849" x2="677.4792060585329" y2="131.3285416756849" 
                       stroke="#bdc3c7" stroke-width="1"/><line x1="503.24484492412887" y1="151.3285416756849" x2="677.4792060585329" y2="151.3285416756849" 
                       stroke="#bdc3c7" stroke-width="1"/><rect x="503.24484492412887" y="51.32854167568492" width="174.23436113440403" height="114.39320531344492" 
                     fill="#ecf0f1" stroke="#2c3e50" stroke-width="3"/><line x1="523.2448449241289" y1="51.32854167568492" x2="523.2448449241289" y2="165.72174698912983" 
                       stroke="#bdc3c7" stroke-width="1"/><line x1="543.2448449241289" y1="51.32854167568492" x2="543.2448449241289" y2="165.72174698912983" 
                       stroke="#bdc3c7" stroke-width="1"/><line x1="563.2448449241289" y1="51.32854167568492" x2="563.2448449241289" y2="165.72174698912983" 
                       stroke="#bdc3c7" stroke-width="1"/><line x1="583.2448449241289" y1="51.32854167568492" x2="583.2448449241289" y2="165.72174698912983" 
                       stroke="#bdc3c7" stroke-width="1"/><line x1="603.2448449241289" y1="51.32854167568492" x2="603.2448449241289" y2="165.72174698912983" 
                       stroke="#bdc3c7" stroke-width="1"/><line x1="623.2448449241289" y1="51.32854167568492" x2="623.2448449241289" y2="165.72174698912983" 
                       stroke="#bdc3c7" stroke-width="1"/><line x1="643.2448449241289" y1="51.32854167568492" x2="643.2448449241289" y2="165.72174698912983" 
                       stroke="#bdc3c7" stroke-width="1"/><line x1="663.2448449241289" y1="51.32854167568492" x2="663.2448449241289" y2="165.72174698912983" 
                       stroke="#bdc3c7" stroke-width="1"/><line x1="503.24484492412887" y1="71.32854167568492" x2="677.4792060585329" y2="71.32854167568492" 
                       stroke="#bdc3c7" stroke-width="1"/><line x1="503.24484492412887" y1="91.32854167568492" x2="677.4792060585329" y2="91.32854167568492" 
                       stroke="#bdc3c7" stroke-width="1"/><line x1="503.24484492412887" y1="111.32854167568492" x2="677.4792060585329" y2="111.32854167568492" 
                       stroke="#bdc3c7" stroke-width="1"/><line x1="503.24484492412887" y1="131.3285416756849" x2="677.4792060585329" y2="131.3285416756849" 
                       stroke="#bdc3c7" stroke-width="1"/><line x1="503.24484492412887" y1="151.3285416756849" x2="677.4792060585329" y2="151.3285416756849" 
                       stroke="#bdc3c7" stroke-width="1"/><text x="50" y="30" font-family="Arial, sans-serif" font-size="14" font-weight="bold" fill="#2c3e50">
                 PROJECT 29 - MODERN PLAN</text><text x="650" y="580" font-family="Arial, sans-serif" font-size="10" fill="#2c3e50">
                 SCHAAL 1:100</text><g transform="translate(720, 80)">
                 <line x1="0" y1="0" x2="0" y2="-30" stroke="#e74c3c" stroke-width="2"/>
                 <polygon points="0,-30 -5,-20 5,-20" fill="#e74c3c"/>
                 <text x="10" y="-10" font-family="Arial, sans-serif" font-size="10" fill="#2c3e50">N</text>
                 </g></svg>