<svg width="800" height="600" xmlns="http://www.w3.org/2000/svg" style="background: #f8f8f8;"><rect x="184.67126765372086" y="166.1205368177434" width="430.6574646925583" height="267.7589263645132" 
                   fill="none" stroke="#2c3e50" stroke-width="6"/><line x1="292.33563382686043" y1="166.1205368177434" x2="292.33563382686043" y2="433.8794631822566" 
                     stroke="#2c3e50" stroke-width="4"/><line x1="400" y1="166.1205368177434" x2="400" y2="433.8794631822566" 
                     stroke="#2c3e50" stroke-width="4"/><line x1="507.66436617313957" y1="166.1205368177434" x2="507.66436617313957" y2="433.8794631822566" 
                     stroke="#2c3e50" stroke-width="4"/><rect x="218.50915240023951" y="427.8794631822566" width="40" height="6" fill="#8b4513"/><rect x="218.50915240023951" y="427.8794631822566" width="40" height="6" fill="#8b4513"/><rect x="218.50915240023951" y="427.8794631822566" width="40" height="6" fill="#8b4513"/><rect x="250.39218977287203" y="354.946139494326" width="20" height="15" 
                     fill="#3498db" stroke="#2c3e50" stroke-width="2"/><rect x="250.39218977287203" y="354.946139494326" width="20" height="15" 
                     fill="#3498db" stroke="#2c3e50" stroke-width="2"/><rect x="250.39218977287203" y="354.946139494326" width="20" height="15" 
                     fill="#3498db" stroke="#2c3e50" stroke-width="2"/><rect x="250.39218977287203" y="354.946139494326" width="20" height="15" 
                     fill="#3498db" stroke="#2c3e50" stroke-width="2"/><rect x="250.39218977287203" y="354.946139494326" width="20" height="15" 
                     fill="#3498db" stroke="#2c3e50" stroke-width="2"/><text x="50" y="30" font-family="Arial, sans-serif" font-size="14" font-weight="bold" fill="#2c3e50">
                 PROJECT 12 - RESIDENTIAL PLAN</text><text x="650" y="580" font-family="Arial, sans-serif" font-size="10" fill="#2c3e50">
                 SCHAAL 1:100</text><g transform="translate(720, 80)">
                 <line x1="0" y1="0" x2="0" y2="-30" stroke="#e74c3c" stroke-width="2"/>
                 <polygon points="0,-30 -5,-20 5,-20" fill="#e74c3c"/>
                 <text x="10" y="-10" font-family="Arial, sans-serif" font-size="10" fill="#2c3e50">N</text>
                 </g></svg>