<svg width="800" height="600" xmlns="http://www.w3.org/2000/svg" style="background: #f8f8f8;"><rect x="253.5503250397932" y="196.76718889338463" width="198.4896090352322" height="115.36464866410824" 
                     fill="#ecf0f1" stroke="#2c3e50" stroke-width="3"/><line x1="273.55032503979317" y1="196.76718889338463" x2="273.55032503979317" y2="312.1318375574929" 
                       stroke="#bdc3c7" stroke-width="1"/><line x1="293.55032503979317" y1="196.76718889338463" x2="293.55032503979317" y2="312.1318375574929" 
                       stroke="#bdc3c7" stroke-width="1"/><line x1="313.55032503979317" y1="196.76718889338463" x2="313.55032503979317" y2="312.1318375574929" 
                       stroke="#bdc3c7" stroke-width="1"/><line x1="333.55032503979317" y1="196.76718889338463" x2="333.55032503979317" y2="312.1318375574929" 
                       stroke="#bdc3c7" stroke-width="1"/><line x1="353.55032503979317" y1="196.76718889338463" x2="353.55032503979317" y2="312.1318375574929" 
                       stroke="#bdc3c7" stroke-width="1"/><line x1="373.55032503979317" y1="196.76718889338463" x2="373.55032503979317" y2="312.1318375574929" 
                       stroke="#bdc3c7" stroke-width="1"/><line x1="393.55032503979317" y1="196.76718889338463" x2="393.55032503979317" y2="312.1318375574929" 
                       stroke="#bdc3c7" stroke-width="1"/><line x1="413.55032503979317" y1="196.76718889338463" x2="413.55032503979317" y2="312.1318375574929" 
                       stroke="#bdc3c7" stroke-width="1"/><line x1="433.55032503979317" y1="196.76718889338463" x2="433.55032503979317" y2="312.1318375574929" 
                       stroke="#bdc3c7" stroke-width="1"/><line x1="253.5503250397932" y1="216.76718889338463" x2="452.03993407502537" y2="216.76718889338463" 
                       stroke="#bdc3c7" stroke-width="1"/><line x1="253.5503250397932" y1="236.76718889338463" x2="452.03993407502537" y2="236.76718889338463" 
                       stroke="#bdc3c7" stroke-width="1"/><line x1="253.5503250397932" y1="256.7671888933846" x2="452.03993407502537" y2="256.7671888933846" 
                       stroke="#bdc3c7" stroke-width="1"/><line x1="253.5503250397932" y1="276.7671888933846" x2="452.03993407502537" y2="276.7671888933846" 
                       stroke="#bdc3c7" stroke-width="1"/><line x1="253.5503250397932" y1="296.7671888933846" x2="452.03993407502537" y2="296.7671888933846" 
                       stroke="#bdc3c7" stroke-width="1"/><rect x="253.5503250397932" y="196.76718889338463" width="198.4896090352322" height="115.36464866410824" 
                     fill="#ecf0f1" stroke="#2c3e50" stroke-width="3"/><line x1="273.55032503979317" y1="196.76718889338463" x2="273.55032503979317" y2="312.1318375574929" 
                       stroke="#bdc3c7" stroke-width="1"/><line x1="293.55032503979317" y1="196.76718889338463" x2="293.55032503979317" y2="312.1318375574929" 
                       stroke="#bdc3c7" stroke-width="1"/><line x1="313.55032503979317" y1="196.76718889338463" x2="313.55032503979317" y2="312.1318375574929" 
                       stroke="#bdc3c7" stroke-width="1"/><line x1="333.55032503979317" y1="196.76718889338463" x2="333.55032503979317" y2="312.1318375574929" 
                       stroke="#bdc3c7" stroke-width="1"/><line x1="353.55032503979317" y1="196.76718889338463" x2="353.55032503979317" y2="312.1318375574929" 
                       stroke="#bdc3c7" stroke-width="1"/><line x1="373.55032503979317" y1="196.76718889338463" x2="373.55032503979317" y2="312.1318375574929" 
                       stroke="#bdc3c7" stroke-width="1"/><line x1="393.55032503979317" y1="196.76718889338463" x2="393.55032503979317" y2="312.1318375574929" 
                       stroke="#bdc3c7" stroke-width="1"/><line x1="413.55032503979317" y1="196.76718889338463" x2="413.55032503979317" y2="312.1318375574929" 
                       stroke="#bdc3c7" stroke-width="1"/><line x1="433.55032503979317" y1="196.76718889338463" x2="433.55032503979317" y2="312.1318375574929" 
                       stroke="#bdc3c7" stroke-width="1"/><line x1="253.5503250397932" y1="216.76718889338463" x2="452.03993407502537" y2="216.76718889338463" 
                       stroke="#bdc3c7" stroke-width="1"/><line x1="253.5503250397932" y1="236.76718889338463" x2="452.03993407502537" y2="236.76718889338463" 
                       stroke="#bdc3c7" stroke-width="1"/><line x1="253.5503250397932" y1="256.7671888933846" x2="452.03993407502537" y2="256.7671888933846" 
                       stroke="#bdc3c7" stroke-width="1"/><line x1="253.5503250397932" y1="276.7671888933846" x2="452.03993407502537" y2="276.7671888933846" 
                       stroke="#bdc3c7" stroke-width="1"/><line x1="253.5503250397932" y1="296.7671888933846" x2="452.03993407502537" y2="296.7671888933846" 
                       stroke="#bdc3c7" stroke-width="1"/><rect x="253.5503250397932" y="196.76718889338463" width="198.4896090352322" height="115.36464866410824" 
                     fill="#ecf0f1" stroke="#2c3e50" stroke-width="3"/><line x1="273.55032503979317" y1="196.76718889338463" x2="273.55032503979317" y2="312.1318375574929" 
                       stroke="#bdc3c7" stroke-width="1"/><line x1="293.55032503979317" y1="196.76718889338463" x2="293.55032503979317" y2="312.1318375574929" 
                       stroke="#bdc3c7" stroke-width="1"/><line x1="313.55032503979317" y1="196.76718889338463" x2="313.55032503979317" y2="312.1318375574929" 
                       stroke="#bdc3c7" stroke-width="1"/><line x1="333.55032503979317" y1="196.76718889338463" x2="333.55032503979317" y2="312.1318375574929" 
                       stroke="#bdc3c7" stroke-width="1"/><line x1="353.55032503979317" y1="196.76718889338463" x2="353.55032503979317" y2="312.1318375574929" 
                       stroke="#bdc3c7" stroke-width="1"/><line x1="373.55032503979317" y1="196.76718889338463" x2="373.55032503979317" y2="312.1318375574929" 
                       stroke="#bdc3c7" stroke-width="1"/><line x1="393.55032503979317" y1="196.76718889338463" x2="393.55032503979317" y2="312.1318375574929" 
                       stroke="#bdc3c7" stroke-width="1"/><line x1="413.55032503979317" y1="196.76718889338463" x2="413.55032503979317" y2="312.1318375574929" 
                       stroke="#bdc3c7" stroke-width="1"/><line x1="433.55032503979317" y1="196.76718889338463" x2="433.55032503979317" y2="312.1318375574929" 
                       stroke="#bdc3c7" stroke-width="1"/><line x1="253.5503250397932" y1="216.76718889338463" x2="452.03993407502537" y2="216.76718889338463" 
                       stroke="#bdc3c7" stroke-width="1"/><line x1="253.5503250397932" y1="236.76718889338463" x2="452.03993407502537" y2="236.76718889338463" 
                       stroke="#bdc3c7" stroke-width="1"/><line x1="253.5503250397932" y1="256.7671888933846" x2="452.03993407502537" y2="256.7671888933846" 
                       stroke="#bdc3c7" stroke-width="1"/><line x1="253.5503250397932" y1="276.7671888933846" x2="452.03993407502537" y2="276.7671888933846" 
                       stroke="#bdc3c7" stroke-width="1"/><line x1="253.5503250397932" y1="296.7671888933846" x2="452.03993407502537" y2="296.7671888933846" 
                       stroke="#bdc3c7" stroke-width="1"/><rect x="253.5503250397932" y="196.76718889338463" width="198.4896090352322" height="115.36464866410824" 
                     fill="#ecf0f1" stroke="#2c3e50" stroke-width="3"/><line x1="273.55032503979317" y1="196.76718889338463" x2="273.55032503979317" y2="312.1318375574929" 
                       stroke="#bdc3c7" stroke-width="1"/><line x1="293.55032503979317" y1="196.76718889338463" x2="293.55032503979317" y2="312.1318375574929" 
                       stroke="#bdc3c7" stroke-width="1"/><line x1="313.55032503979317" y1="196.76718889338463" x2="313.55032503979317" y2="312.1318375574929" 
                       stroke="#bdc3c7" stroke-width="1"/><line x1="333.55032503979317" y1="196.76718889338463" x2="333.55032503979317" y2="312.1318375574929" 
                       stroke="#bdc3c7" stroke-width="1"/><line x1="353.55032503979317" y1="196.76718889338463" x2="353.55032503979317" y2="312.1318375574929" 
                       stroke="#bdc3c7" stroke-width="1"/><line x1="373.55032503979317" y1="196.76718889338463" x2="373.55032503979317" y2="312.1318375574929" 
                       stroke="#bdc3c7" stroke-width="1"/><line x1="393.55032503979317" y1="196.76718889338463" x2="393.55032503979317" y2="312.1318375574929" 
                       stroke="#bdc3c7" stroke-width="1"/><line x1="413.55032503979317" y1="196.76718889338463" x2="413.55032503979317" y2="312.1318375574929" 
                       stroke="#bdc3c7" stroke-width="1"/><line x1="433.55032503979317" y1="196.76718889338463" x2="433.55032503979317" y2="312.1318375574929" 
                       stroke="#bdc3c7" stroke-width="1"/><line x1="253.5503250397932" y1="216.76718889338463" x2="452.03993407502537" y2="216.76718889338463" 
                       stroke="#bdc3c7" stroke-width="1"/><line x1="253.5503250397932" y1="236.76718889338463" x2="452.03993407502537" y2="236.76718889338463" 
                       stroke="#bdc3c7" stroke-width="1"/><line x1="253.5503250397932" y1="256.7671888933846" x2="452.03993407502537" y2="256.7671888933846" 
                       stroke="#bdc3c7" stroke-width="1"/><line x1="253.5503250397932" y1="276.7671888933846" x2="452.03993407502537" y2="276.7671888933846" 
                       stroke="#bdc3c7" stroke-width="1"/><line x1="253.5503250397932" y1="296.7671888933846" x2="452.03993407502537" y2="296.7671888933846" 
                       stroke="#bdc3c7" stroke-width="1"/><rect x="253.5503250397932" y="196.76718889338463" width="198.4896090352322" height="115.36464866410824" 
                     fill="#ecf0f1" stroke="#2c3e50" stroke-width="3"/><line x1="273.55032503979317" y1="196.76718889338463" x2="273.55032503979317" y2="312.1318375574929" 
                       stroke="#bdc3c7" stroke-width="1"/><line x1="293.55032503979317" y1="196.76718889338463" x2="293.55032503979317" y2="312.1318375574929" 
                       stroke="#bdc3c7" stroke-width="1"/><line x1="313.55032503979317" y1="196.76718889338463" x2="313.55032503979317" y2="312.1318375574929" 
                       stroke="#bdc3c7" stroke-width="1"/><line x1="333.55032503979317" y1="196.76718889338463" x2="333.55032503979317" y2="312.1318375574929" 
                       stroke="#bdc3c7" stroke-width="1"/><line x1="353.55032503979317" y1="196.76718889338463" x2="353.55032503979317" y2="312.1318375574929" 
                       stroke="#bdc3c7" stroke-width="1"/><line x1="373.55032503979317" y1="196.76718889338463" x2="373.55032503979317" y2="312.1318375574929" 
                       stroke="#bdc3c7" stroke-width="1"/><line x1="393.55032503979317" y1="196.76718889338463" x2="393.55032503979317" y2="312.1318375574929" 
                       stroke="#bdc3c7" stroke-width="1"/><line x1="413.55032503979317" y1="196.76718889338463" x2="413.55032503979317" y2="312.1318375574929" 
                       stroke="#bdc3c7" stroke-width="1"/><line x1="433.55032503979317" y1="196.76718889338463" x2="433.55032503979317" y2="312.1318375574929" 
                       stroke="#bdc3c7" stroke-width="1"/><line x1="253.5503250397932" y1="216.76718889338463" x2="452.03993407502537" y2="216.76718889338463" 
                       stroke="#bdc3c7" stroke-width="1"/><line x1="253.5503250397932" y1="236.76718889338463" x2="452.03993407502537" y2="236.76718889338463" 
                       stroke="#bdc3c7" stroke-width="1"/><line x1="253.5503250397932" y1="256.7671888933846" x2="452.03993407502537" y2="256.7671888933846" 
                       stroke="#bdc3c7" stroke-width="1"/><line x1="253.5503250397932" y1="276.7671888933846" x2="452.03993407502537" y2="276.7671888933846" 
                       stroke="#bdc3c7" stroke-width="1"/><line x1="253.5503250397932" y1="296.7671888933846" x2="452.03993407502537" y2="296.7671888933846" 
                       stroke="#bdc3c7" stroke-width="1"/><text x="50" y="30" font-family="Arial, sans-serif" font-size="14" font-weight="bold" fill="#2c3e50">
                 PROJECT 41 - MODERN PLAN</text><text x="650" y="580" font-family="Arial, sans-serif" font-size="10" fill="#2c3e50">
                 SCHAAL 1:100</text><g transform="translate(720, 80)">
                 <line x1="0" y1="0" x2="0" y2="-30" stroke="#e74c3c" stroke-width="2"/>
                 <polygon points="0,-30 -5,-20 5,-20" fill="#e74c3c"/>
                 <text x="10" y="-10" font-family="Arial, sans-serif" font-size="10" fill="#2c3e50">N</text>
                 </g></svg>