<svg width="800" height="600" xmlns="http://www.w3.org/2000/svg" style="background: #f8f8f8;"><rect x="503.8229738275988" y="120.26397081532251" width="142.14083627502987" height="113.30785005860889" 
                     fill="#ecf0f1" stroke="#2c3e50" stroke-width="3"/><line x1="523.8229738275988" y1="120.26397081532251" x2="523.8229738275988" y2="233.57182087393142" 
                       stroke="#bdc3c7" stroke-width="1"/><line x1="543.8229738275988" y1="120.26397081532251" x2="543.8229738275988" y2="233.57182087393142" 
                       stroke="#bdc3c7" stroke-width="1"/><line x1="563.8229738275988" y1="120.26397081532251" x2="563.8229738275988" y2="233.57182087393142" 
                       stroke="#bdc3c7" stroke-width="1"/><line x1="583.8229738275988" y1="120.26397081532251" x2="583.8229738275988" y2="233.57182087393142" 
                       stroke="#bdc3c7" stroke-width="1"/><line x1="603.8229738275988" y1="120.26397081532251" x2="603.8229738275988" y2="233.57182087393142" 
                       stroke="#bdc3c7" stroke-width="1"/><line x1="623.8229738275988" y1="120.26397081532251" x2="623.8229738275988" y2="233.57182087393142" 
                       stroke="#bdc3c7" stroke-width="1"/><line x1="643.8229738275988" y1="120.26397081532251" x2="643.8229738275988" y2="233.57182087393142" 
                       stroke="#bdc3c7" stroke-width="1"/><line x1="503.8229738275988" y1="140.26397081532252" x2="645.9638101026287" y2="140.26397081532252" 
                       stroke="#bdc3c7" stroke-width="1"/><line x1="503.8229738275988" y1="160.26397081532252" x2="645.9638101026287" y2="160.26397081532252" 
                       stroke="#bdc3c7" stroke-width="1"/><line x1="503.8229738275988" y1="180.26397081532252" x2="645.9638101026287" y2="180.26397081532252" 
                       stroke="#bdc3c7" stroke-width="1"/><line x1="503.8229738275988" y1="200.26397081532252" x2="645.9638101026287" y2="200.26397081532252" 
                       stroke="#bdc3c7" stroke-width="1"/><line x1="503.8229738275988" y1="220.26397081532252" x2="645.9638101026287" y2="220.26397081532252" 
                       stroke="#bdc3c7" stroke-width="1"/><rect x="503.8229738275988" y="120.26397081532251" width="142.14083627502987" height="113.30785005860889" 
                     fill="#ecf0f1" stroke="#2c3e50" stroke-width="3"/><line x1="523.8229738275988" y1="120.26397081532251" x2="523.8229738275988" y2="233.57182087393142" 
                       stroke="#bdc3c7" stroke-width="1"/><line x1="543.8229738275988" y1="120.26397081532251" x2="543.8229738275988" y2="233.57182087393142" 
                       stroke="#bdc3c7" stroke-width="1"/><line x1="563.8229738275988" y1="120.26397081532251" x2="563.8229738275988" y2="233.57182087393142" 
                       stroke="#bdc3c7" stroke-width="1"/><line x1="583.8229738275988" y1="120.26397081532251" x2="583.8229738275988" y2="233.57182087393142" 
                       stroke="#bdc3c7" stroke-width="1"/><line x1="603.8229738275988" y1="120.26397081532251" x2="603.8229738275988" y2="233.57182087393142" 
                       stroke="#bdc3c7" stroke-width="1"/><line x1="623.8229738275988" y1="120.26397081532251" x2="623.8229738275988" y2="233.57182087393142" 
                       stroke="#bdc3c7" stroke-width="1"/><line x1="643.8229738275988" y1="120.26397081532251" x2="643.8229738275988" y2="233.57182087393142" 
                       stroke="#bdc3c7" stroke-width="1"/><line x1="503.8229738275988" y1="140.26397081532252" x2="645.9638101026287" y2="140.26397081532252" 
                       stroke="#bdc3c7" stroke-width="1"/><line x1="503.8229738275988" y1="160.26397081532252" x2="645.9638101026287" y2="160.26397081532252" 
                       stroke="#bdc3c7" stroke-width="1"/><line x1="503.8229738275988" y1="180.26397081532252" x2="645.9638101026287" y2="180.26397081532252" 
                       stroke="#bdc3c7" stroke-width="1"/><line x1="503.8229738275988" y1="200.26397081532252" x2="645.9638101026287" y2="200.26397081532252" 
                       stroke="#bdc3c7" stroke-width="1"/><line x1="503.8229738275988" y1="220.26397081532252" x2="645.9638101026287" y2="220.26397081532252" 
                       stroke="#bdc3c7" stroke-width="1"/><text x="50" y="30" font-family="Arial, sans-serif" font-size="14" font-weight="bold" fill="#2c3e50">
                 PROJECT 17 - MODERN PLAN</text><text x="650" y="580" font-family="Arial, sans-serif" font-size="10" fill="#2c3e50">
                 SCHAAL 1:100</text><g transform="translate(720, 80)">
                 <line x1="0" y1="0" x2="0" y2="-30" stroke="#e74c3c" stroke-width="2"/>
                 <polygon points="0,-30 -5,-20 5,-20" fill="#e74c3c"/>
                 <text x="10" y="-10" font-family="Arial, sans-serif" font-size="10" fill="#2c3e50">N</text>
                 </g></svg>