<svg width="800" height="600" xmlns="http://www.w3.org/2000/svg" style="background: #f8f8f8;"><rect x="435.23977532078936" y="217.1743643039494" width="174.28183308065854" height="96.76932323296342" 
                     fill="#ecf0f1" stroke="#2c3e50" stroke-width="3"/><line x1="455.23977532078936" y1="217.1743643039494" x2="455.23977532078936" y2="313.9436875369128" 
                       stroke="#bdc3c7" stroke-width="1"/><line x1="475.23977532078936" y1="217.1743643039494" x2="475.23977532078936" y2="313.9436875369128" 
                       stroke="#bdc3c7" stroke-width="1"/><line x1="495.23977532078936" y1="217.1743643039494" x2="495.23977532078936" y2="313.9436875369128" 
                       stroke="#bdc3c7" stroke-width="1"/><line x1="515.2397753207894" y1="217.1743643039494" x2="515.2397753207894" y2="313.9436875369128" 
                       stroke="#bdc3c7" stroke-width="1"/><line x1="535.2397753207894" y1="217.1743643039494" x2="535.2397753207894" y2="313.9436875369128" 
                       stroke="#bdc3c7" stroke-width="1"/><line x1="555.2397753207894" y1="217.1743643039494" x2="555.2397753207894" y2="313.9436875369128" 
                       stroke="#bdc3c7" stroke-width="1"/><line x1="575.2397753207894" y1="217.1743643039494" x2="575.2397753207894" y2="313.9436875369128" 
                       stroke="#bdc3c7" stroke-width="1"/><line x1="595.2397753207894" y1="217.1743643039494" x2="595.2397753207894" y2="313.9436875369128" 
                       stroke="#bdc3c7" stroke-width="1"/><line x1="435.23977532078936" y1="237.1743643039494" x2="609.5216084014479" y2="237.1743643039494" 
                       stroke="#bdc3c7" stroke-width="1"/><line x1="435.23977532078936" y1="257.1743643039494" x2="609.5216084014479" y2="257.1743643039494" 
                       stroke="#bdc3c7" stroke-width="1"/><line x1="435.23977532078936" y1="277.1743643039494" x2="609.5216084014479" y2="277.1743643039494" 
                       stroke="#bdc3c7" stroke-width="1"/><line x1="435.23977532078936" y1="297.1743643039494" x2="609.5216084014479" y2="297.1743643039494" 
                       stroke="#bdc3c7" stroke-width="1"/><rect x="435.23977532078936" y="217.1743643039494" width="174.28183308065854" height="96.76932323296342" 
                     fill="#ecf0f1" stroke="#2c3e50" stroke-width="3"/><line x1="455.23977532078936" y1="217.1743643039494" x2="455.23977532078936" y2="313.9436875369128" 
                       stroke="#bdc3c7" stroke-width="1"/><line x1="475.23977532078936" y1="217.1743643039494" x2="475.23977532078936" y2="313.9436875369128" 
                       stroke="#bdc3c7" stroke-width="1"/><line x1="495.23977532078936" y1="217.1743643039494" x2="495.23977532078936" y2="313.9436875369128" 
                       stroke="#bdc3c7" stroke-width="1"/><line x1="515.2397753207894" y1="217.1743643039494" x2="515.2397753207894" y2="313.9436875369128" 
                       stroke="#bdc3c7" stroke-width="1"/><line x1="535.2397753207894" y1="217.1743643039494" x2="535.2397753207894" y2="313.9436875369128" 
                       stroke="#bdc3c7" stroke-width="1"/><line x1="555.2397753207894" y1="217.1743643039494" x2="555.2397753207894" y2="313.9436875369128" 
                       stroke="#bdc3c7" stroke-width="1"/><line x1="575.2397753207894" y1="217.1743643039494" x2="575.2397753207894" y2="313.9436875369128" 
                       stroke="#bdc3c7" stroke-width="1"/><line x1="595.2397753207894" y1="217.1743643039494" x2="595.2397753207894" y2="313.9436875369128" 
                       stroke="#bdc3c7" stroke-width="1"/><line x1="435.23977532078936" y1="237.1743643039494" x2="609.5216084014479" y2="237.1743643039494" 
                       stroke="#bdc3c7" stroke-width="1"/><line x1="435.23977532078936" y1="257.1743643039494" x2="609.5216084014479" y2="257.1743643039494" 
                       stroke="#bdc3c7" stroke-width="1"/><line x1="435.23977532078936" y1="277.1743643039494" x2="609.5216084014479" y2="277.1743643039494" 
                       stroke="#bdc3c7" stroke-width="1"/><line x1="435.23977532078936" y1="297.1743643039494" x2="609.5216084014479" y2="297.1743643039494" 
                       stroke="#bdc3c7" stroke-width="1"/><text x="50" y="30" font-family="Arial, sans-serif" font-size="14" font-weight="bold" fill="#2c3e50">
                 PROJECT 37 - MODERN PLAN</text><text x="650" y="580" font-family="Arial, sans-serif" font-size="10" fill="#2c3e50">
                 SCHAAL 1:100</text><g transform="translate(720, 80)">
                 <line x1="0" y1="0" x2="0" y2="-30" stroke="#e74c3c" stroke-width="2"/>
                 <polygon points="0,-30 -5,-20 5,-20" fill="#e74c3c"/>
                 <text x="10" y="-10" font-family="Arial, sans-serif" font-size="10" fill="#2c3e50">N</text>
                 </g></svg>