<svg width="800" height="600" xmlns="http://www.w3.org/2000/svg" style="background: #f8f8f8;"><rect x="189.50076038912823" y="341.22723498400427" width="144.24854293692988" height="128.23730026693738" 
                     fill="#ecf0f1" stroke="#2c3e50" stroke-width="3"/><line x1="209.50076038912823" y1="341.22723498400427" x2="209.50076038912823" y2="469.46453525094165" 
                       stroke="#bdc3c7" stroke-width="1"/><line x1="229.50076038912823" y1="341.22723498400427" x2="229.50076038912823" y2="469.46453525094165" 
                       stroke="#bdc3c7" stroke-width="1"/><line x1="249.50076038912823" y1="341.22723498400427" x2="249.50076038912823" y2="469.46453525094165" 
                       stroke="#bdc3c7" stroke-width="1"/><line x1="269.50076038912823" y1="341.22723498400427" x2="269.50076038912823" y2="469.46453525094165" 
                       stroke="#bdc3c7" stroke-width="1"/><line x1="289.50076038912823" y1="341.22723498400427" x2="289.50076038912823" y2="469.46453525094165" 
                       stroke="#bdc3c7" stroke-width="1"/><line x1="309.50076038912823" y1="341.22723498400427" x2="309.50076038912823" y2="469.46453525094165" 
                       stroke="#bdc3c7" stroke-width="1"/><line x1="329.50076038912823" y1="341.22723498400427" x2="329.50076038912823" y2="469.46453525094165" 
                       stroke="#bdc3c7" stroke-width="1"/><line x1="189.50076038912823" y1="361.22723498400427" x2="333.7493033260581" y2="361.22723498400427" 
                       stroke="#bdc3c7" stroke-width="1"/><line x1="189.50076038912823" y1="381.22723498400427" x2="333.7493033260581" y2="381.22723498400427" 
                       stroke="#bdc3c7" stroke-width="1"/><line x1="189.50076038912823" y1="401.22723498400427" x2="333.7493033260581" y2="401.22723498400427" 
                       stroke="#bdc3c7" stroke-width="1"/><line x1="189.50076038912823" y1="421.22723498400427" x2="333.7493033260581" y2="421.22723498400427" 
                       stroke="#bdc3c7" stroke-width="1"/><line x1="189.50076038912823" y1="441.22723498400427" x2="333.7493033260581" y2="441.22723498400427" 
                       stroke="#bdc3c7" stroke-width="1"/><line x1="189.50076038912823" y1="461.22723498400427" x2="333.7493033260581" y2="461.22723498400427" 
                       stroke="#bdc3c7" stroke-width="1"/><rect x="189.50076038912823" y="341.22723498400427" width="144.24854293692988" height="128.23730026693738" 
                     fill="#ecf0f1" stroke="#2c3e50" stroke-width="3"/><line x1="209.50076038912823" y1="341.22723498400427" x2="209.50076038912823" y2="469.46453525094165" 
                       stroke="#bdc3c7" stroke-width="1"/><line x1="229.50076038912823" y1="341.22723498400427" x2="229.50076038912823" y2="469.46453525094165" 
                       stroke="#bdc3c7" stroke-width="1"/><line x1="249.50076038912823" y1="341.22723498400427" x2="249.50076038912823" y2="469.46453525094165" 
                       stroke="#bdc3c7" stroke-width="1"/><line x1="269.50076038912823" y1="341.22723498400427" x2="269.50076038912823" y2="469.46453525094165" 
                       stroke="#bdc3c7" stroke-width="1"/><line x1="289.50076038912823" y1="341.22723498400427" x2="289.50076038912823" y2="469.46453525094165" 
                       stroke="#bdc3c7" stroke-width="1"/><line x1="309.50076038912823" y1="341.22723498400427" x2="309.50076038912823" y2="469.46453525094165" 
                       stroke="#bdc3c7" stroke-width="1"/><line x1="329.50076038912823" y1="341.22723498400427" x2="329.50076038912823" y2="469.46453525094165" 
                       stroke="#bdc3c7" stroke-width="1"/><line x1="189.50076038912823" y1="361.22723498400427" x2="333.7493033260581" y2="361.22723498400427" 
                       stroke="#bdc3c7" stroke-width="1"/><line x1="189.50076038912823" y1="381.22723498400427" x2="333.7493033260581" y2="381.22723498400427" 
                       stroke="#bdc3c7" stroke-width="1"/><line x1="189.50076038912823" y1="401.22723498400427" x2="333.7493033260581" y2="401.22723498400427" 
                       stroke="#bdc3c7" stroke-width="1"/><line x1="189.50076038912823" y1="421.22723498400427" x2="333.7493033260581" y2="421.22723498400427" 
                       stroke="#bdc3c7" stroke-width="1"/><line x1="189.50076038912823" y1="441.22723498400427" x2="333.7493033260581" y2="441.22723498400427" 
                       stroke="#bdc3c7" stroke-width="1"/><line x1="189.50076038912823" y1="461.22723498400427" x2="333.7493033260581" y2="461.22723498400427" 
                       stroke="#bdc3c7" stroke-width="1"/><rect x="189.50076038912823" y="341.22723498400427" width="144.24854293692988" height="128.23730026693738" 
                     fill="#ecf0f1" stroke="#2c3e50" stroke-width="3"/><line x1="209.50076038912823" y1="341.22723498400427" x2="209.50076038912823" y2="469.46453525094165" 
                       stroke="#bdc3c7" stroke-width="1"/><line x1="229.50076038912823" y1="341.22723498400427" x2="229.50076038912823" y2="469.46453525094165" 
                       stroke="#bdc3c7" stroke-width="1"/><line x1="249.50076038912823" y1="341.22723498400427" x2="249.50076038912823" y2="469.46453525094165" 
                       stroke="#bdc3c7" stroke-width="1"/><line x1="269.50076038912823" y1="341.22723498400427" x2="269.50076038912823" y2="469.46453525094165" 
                       stroke="#bdc3c7" stroke-width="1"/><line x1="289.50076038912823" y1="341.22723498400427" x2="289.50076038912823" y2="469.46453525094165" 
                       stroke="#bdc3c7" stroke-width="1"/><line x1="309.50076038912823" y1="341.22723498400427" x2="309.50076038912823" y2="469.46453525094165" 
                       stroke="#bdc3c7" stroke-width="1"/><line x1="329.50076038912823" y1="341.22723498400427" x2="329.50076038912823" y2="469.46453525094165" 
                       stroke="#bdc3c7" stroke-width="1"/><line x1="189.50076038912823" y1="361.22723498400427" x2="333.7493033260581" y2="361.22723498400427" 
                       stroke="#bdc3c7" stroke-width="1"/><line x1="189.50076038912823" y1="381.22723498400427" x2="333.7493033260581" y2="381.22723498400427" 
                       stroke="#bdc3c7" stroke-width="1"/><line x1="189.50076038912823" y1="401.22723498400427" x2="333.7493033260581" y2="401.22723498400427" 
                       stroke="#bdc3c7" stroke-width="1"/><line x1="189.50076038912823" y1="421.22723498400427" x2="333.7493033260581" y2="421.22723498400427" 
                       stroke="#bdc3c7" stroke-width="1"/><line x1="189.50076038912823" y1="441.22723498400427" x2="333.7493033260581" y2="441.22723498400427" 
                       stroke="#bdc3c7" stroke-width="1"/><line x1="189.50076038912823" y1="461.22723498400427" x2="333.7493033260581" y2="461.22723498400427" 
                       stroke="#bdc3c7" stroke-width="1"/><text x="50" y="30" font-family="Arial, sans-serif" font-size="14" font-weight="bold" fill="#2c3e50">
                 PROJECT 33 - MODERN PLAN</text><text x="650" y="580" font-family="Arial, sans-serif" font-size="10" fill="#2c3e50">
                 SCHAAL 1:100</text><g transform="translate(720, 80)">
                 <line x1="0" y1="0" x2="0" y2="-30" stroke="#e74c3c" stroke-width="2"/>
                 <polygon points="0,-30 -5,-20 5,-20" fill="#e74c3c"/>
                 <text x="10" y="-10" font-family="Arial, sans-serif" font-size="10" fill="#2c3e50">N</text>
                 </g></svg>