<svg width="800" height="600" xmlns="http://www.w3.org/2000/svg" style="background: #f8f8f8;"><rect x="208.396550288262" y="188.81664367991107" width="383.206899423476" height="222.36671264017787" 
                   fill="none" stroke="#2c3e50" stroke-width="6"/><line x1="336.13218342942065" y1="188.81664367991107" x2="336.13218342942065" y2="411.18335632008893" 
                     stroke="#2c3e50" stroke-width="4"/><line x1="463.8678165705793" y1="188.81664367991107" x2="463.8678165705793" y2="411.18335632008893" 
                     stroke="#2c3e50" stroke-width="4"/><rect x="377.173410327769" y="405.18335632008893" width="40" height="6" fill="#8b4513"/><rect x="377.173410327769" y="405.18335632008893" width="40" height="6" fill="#8b4513"/><rect x="299.698770136958" y="302.338172470946" width="20" height="15" 
                     fill="#3498db" stroke="#2c3e50" stroke-width="2"/><rect x="299.698770136958" y="302.338172470946" width="20" height="15" 
                     fill="#3498db" stroke="#2c3e50" stroke-width="2"/><rect x="299.698770136958" y="302.338172470946" width="20" height="15" 
                     fill="#3498db" stroke="#2c3e50" stroke-width="2"/><rect x="299.698770136958" y="302.338172470946" width="20" height="15" 
                     fill="#3498db" stroke="#2c3e50" stroke-width="2"/><rect x="299.698770136958" y="302.338172470946" width="20" height="15" 
                     fill="#3498db" stroke="#2c3e50" stroke-width="2"/><rect x="299.698770136958" y="302.338172470946" width="20" height="15" 
                     fill="#3498db" stroke="#2c3e50" stroke-width="2"/><rect x="299.698770136958" y="302.338172470946" width="20" height="15" 
                     fill="#3498db" stroke="#2c3e50" stroke-width="2"/><rect x="299.698770136958" y="302.338172470946" width="20" height="15" 
                     fill="#3498db" stroke="#2c3e50" stroke-width="2"/><text x="50" y="30" font-family="Arial, sans-serif" font-size="14" font-weight="bold" fill="#2c3e50">
                 PROJECT 4 - RESIDENTIAL PLAN</text><text x="650" y="580" font-family="Arial, sans-serif" font-size="10" fill="#2c3e50">
                 SCHAAL 1:100</text><g transform="translate(720, 80)">
                 <line x1="0" y1="0" x2="0" y2="-30" stroke="#e74c3c" stroke-width="2"/>
                 <polygon points="0,-30 -5,-20 5,-20" fill="#e74c3c"/>
                 <text x="10" y="-10" font-family="Arial, sans-serif" font-size="10" fill="#2c3e50">N</text>
                 </g></svg>