<svg width="800" height="600" xmlns="http://www.w3.org/2000/svg" style="background: #f8f8f8;"><rect x="469.9539328144529" y="206.62888311679797" width="199.19908660212968" height="126.76431771946227" 
                     fill="#ecf0f1" stroke="#2c3e50" stroke-width="3"/><line x1="489.9539328144529" y1="206.62888311679797" x2="489.9539328144529" y2="333.39320083626023" 
                       stroke="#bdc3c7" stroke-width="1"/><line x1="509.9539328144529" y1="206.62888311679797" x2="509.9539328144529" y2="333.39320083626023" 
                       stroke="#bdc3c7" stroke-width="1"/><line x1="529.9539328144529" y1="206.62888311679797" x2="529.9539328144529" y2="333.39320083626023" 
                       stroke="#bdc3c7" stroke-width="1"/><line x1="549.9539328144529" y1="206.62888311679797" x2="549.9539328144529" y2="333.39320083626023" 
                       stroke="#bdc3c7" stroke-width="1"/><line x1="569.9539328144529" y1="206.62888311679797" x2="569.9539328144529" y2="333.39320083626023" 
                       stroke="#bdc3c7" stroke-width="1"/><line x1="589.9539328144529" y1="206.62888311679797" x2="589.9539328144529" y2="333.39320083626023" 
                       stroke="#bdc3c7" stroke-width="1"/><line x1="609.9539328144529" y1="206.62888311679797" x2="609.9539328144529" y2="333.39320083626023" 
                       stroke="#bdc3c7" stroke-width="1"/><line x1="629.9539328144529" y1="206.62888311679797" x2="629.9539328144529" y2="333.39320083626023" 
                       stroke="#bdc3c7" stroke-width="1"/><line x1="649.9539328144529" y1="206.62888311679797" x2="649.9539328144529" y2="333.39320083626023" 
                       stroke="#bdc3c7" stroke-width="1"/><line x1="469.9539328144529" y1="226.62888311679797" x2="669.1530194165825" y2="226.62888311679797" 
                       stroke="#bdc3c7" stroke-width="1"/><line x1="469.9539328144529" y1="246.62888311679797" x2="669.1530194165825" y2="246.62888311679797" 
                       stroke="#bdc3c7" stroke-width="1"/><line x1="469.9539328144529" y1="266.62888311679797" x2="669.1530194165825" y2="266.62888311679797" 
                       stroke="#bdc3c7" stroke-width="1"/><line x1="469.9539328144529" y1="286.62888311679797" x2="669.1530194165825" y2="286.62888311679797" 
                       stroke="#bdc3c7" stroke-width="1"/><line x1="469.9539328144529" y1="306.62888311679797" x2="669.1530194165825" y2="306.62888311679797" 
                       stroke="#bdc3c7" stroke-width="1"/><line x1="469.9539328144529" y1="326.62888311679797" x2="669.1530194165825" y2="326.62888311679797" 
                       stroke="#bdc3c7" stroke-width="1"/><rect x="469.9539328144529" y="206.62888311679797" width="199.19908660212968" height="126.76431771946227" 
                     fill="#ecf0f1" stroke="#2c3e50" stroke-width="3"/><line x1="489.9539328144529" y1="206.62888311679797" x2="489.9539328144529" y2="333.39320083626023" 
                       stroke="#bdc3c7" stroke-width="1"/><line x1="509.9539328144529" y1="206.62888311679797" x2="509.9539328144529" y2="333.39320083626023" 
                       stroke="#bdc3c7" stroke-width="1"/><line x1="529.9539328144529" y1="206.62888311679797" x2="529.9539328144529" y2="333.39320083626023" 
                       stroke="#bdc3c7" stroke-width="1"/><line x1="549.9539328144529" y1="206.62888311679797" x2="549.9539328144529" y2="333.39320083626023" 
                       stroke="#bdc3c7" stroke-width="1"/><line x1="569.9539328144529" y1="206.62888311679797" x2="569.9539328144529" y2="333.39320083626023" 
                       stroke="#bdc3c7" stroke-width="1"/><line x1="589.9539328144529" y1="206.62888311679797" x2="589.9539328144529" y2="333.39320083626023" 
                       stroke="#bdc3c7" stroke-width="1"/><line x1="609.9539328144529" y1="206.62888311679797" x2="609.9539328144529" y2="333.39320083626023" 
                       stroke="#bdc3c7" stroke-width="1"/><line x1="629.9539328144529" y1="206.62888311679797" x2="629.9539328144529" y2="333.39320083626023" 
                       stroke="#bdc3c7" stroke-width="1"/><line x1="649.9539328144529" y1="206.62888311679797" x2="649.9539328144529" y2="333.39320083626023" 
                       stroke="#bdc3c7" stroke-width="1"/><line x1="469.9539328144529" y1="226.62888311679797" x2="669.1530194165825" y2="226.62888311679797" 
                       stroke="#bdc3c7" stroke-width="1"/><line x1="469.9539328144529" y1="246.62888311679797" x2="669.1530194165825" y2="246.62888311679797" 
                       stroke="#bdc3c7" stroke-width="1"/><line x1="469.9539328144529" y1="266.62888311679797" x2="669.1530194165825" y2="266.62888311679797" 
                       stroke="#bdc3c7" stroke-width="1"/><line x1="469.9539328144529" y1="286.62888311679797" x2="669.1530194165825" y2="286.62888311679797" 
                       stroke="#bdc3c7" stroke-width="1"/><line x1="469.9539328144529" y1="306.62888311679797" x2="669.1530194165825" y2="306.62888311679797" 
                       stroke="#bdc3c7" stroke-width="1"/><line x1="469.9539328144529" y1="326.62888311679797" x2="669.1530194165825" y2="326.62888311679797" 
                       stroke="#bdc3c7" stroke-width="1"/><rect x="469.9539328144529" y="206.62888311679797" width="199.19908660212968" height="126.76431771946227" 
                     fill="#ecf0f1" stroke="#2c3e50" stroke-width="3"/><line x1="489.9539328144529" y1="206.62888311679797" x2="489.9539328144529" y2="333.39320083626023" 
                       stroke="#bdc3c7" stroke-width="1"/><line x1="509.9539328144529" y1="206.62888311679797" x2="509.9539328144529" y2="333.39320083626023" 
                       stroke="#bdc3c7" stroke-width="1"/><line x1="529.9539328144529" y1="206.62888311679797" x2="529.9539328144529" y2="333.39320083626023" 
                       stroke="#bdc3c7" stroke-width="1"/><line x1="549.9539328144529" y1="206.62888311679797" x2="549.9539328144529" y2="333.39320083626023" 
                       stroke="#bdc3c7" stroke-width="1"/><line x1="569.9539328144529" y1="206.62888311679797" x2="569.9539328144529" y2="333.39320083626023" 
                       stroke="#bdc3c7" stroke-width="1"/><line x1="589.9539328144529" y1="206.62888311679797" x2="589.9539328144529" y2="333.39320083626023" 
                       stroke="#bdc3c7" stroke-width="1"/><line x1="609.9539328144529" y1="206.62888311679797" x2="609.9539328144529" y2="333.39320083626023" 
                       stroke="#bdc3c7" stroke-width="1"/><line x1="629.9539328144529" y1="206.62888311679797" x2="629.9539328144529" y2="333.39320083626023" 
                       stroke="#bdc3c7" stroke-width="1"/><line x1="649.9539328144529" y1="206.62888311679797" x2="649.9539328144529" y2="333.39320083626023" 
                       stroke="#bdc3c7" stroke-width="1"/><line x1="469.9539328144529" y1="226.62888311679797" x2="669.1530194165825" y2="226.62888311679797" 
                       stroke="#bdc3c7" stroke-width="1"/><line x1="469.9539328144529" y1="246.62888311679797" x2="669.1530194165825" y2="246.62888311679797" 
                       stroke="#bdc3c7" stroke-width="1"/><line x1="469.9539328144529" y1="266.62888311679797" x2="669.1530194165825" y2="266.62888311679797" 
                       stroke="#bdc3c7" stroke-width="1"/><line x1="469.9539328144529" y1="286.62888311679797" x2="669.1530194165825" y2="286.62888311679797" 
                       stroke="#bdc3c7" stroke-width="1"/><line x1="469.9539328144529" y1="306.62888311679797" x2="669.1530194165825" y2="306.62888311679797" 
                       stroke="#bdc3c7" stroke-width="1"/><line x1="469.9539328144529" y1="326.62888311679797" x2="669.1530194165825" y2="326.62888311679797" 
                       stroke="#bdc3c7" stroke-width="1"/><text x="50" y="30" font-family="Arial, sans-serif" font-size="14" font-weight="bold" fill="#2c3e50">
                 PROJECT 9 - MODERN PLAN</text><text x="650" y="580" font-family="Arial, sans-serif" font-size="10" fill="#2c3e50">
                 SCHAAL 1:100</text><g transform="translate(720, 80)">
                 <line x1="0" y1="0" x2="0" y2="-30" stroke="#e74c3c" stroke-width="2"/>
                 <polygon points="0,-30 -5,-20 5,-20" fill="#e74c3c"/>
                 <text x="10" y="-10" font-family="Arial, sans-serif" font-size="10" fill="#2c3e50">N</text>
                 </g></svg>