<svg width="800" height="600" xmlns="http://www.w3.org/2000/svg" style="background: #f8f8f8;"><rect x="205.80545467858042" y="73.38104682512221" width="116.583462545168" height="97.47762380095082" 
                     fill="#ecf0f1" stroke="#2c3e50" stroke-width="3"/><line x1="225.80545467858042" y1="73.38104682512221" x2="225.80545467858042" y2="170.85867062607304" 
                       stroke="#bdc3c7" stroke-width="1"/><line x1="245.80545467858042" y1="73.38104682512221" x2="245.80545467858042" y2="170.85867062607304" 
                       stroke="#bdc3c7" stroke-width="1"/><line x1="265.8054546785804" y1="73.38104682512221" x2="265.8054546785804" y2="170.85867062607304" 
                       stroke="#bdc3c7" stroke-width="1"/><line x1="285.8054546785804" y1="73.38104682512221" x2="285.8054546785804" y2="170.85867062607304" 
                       stroke="#bdc3c7" stroke-width="1"/><line x1="305.8054546785804" y1="73.38104682512221" x2="305.8054546785804" y2="170.85867062607304" 
                       stroke="#bdc3c7" stroke-width="1"/><line x1="205.80545467858042" y1="93.38104682512221" x2="322.3889172237484" y2="93.38104682512221" 
                       stroke="#bdc3c7" stroke-width="1"/><line x1="205.80545467858042" y1="113.38104682512221" x2="322.3889172237484" y2="113.38104682512221" 
                       stroke="#bdc3c7" stroke-width="1"/><line x1="205.80545467858042" y1="133.3810468251222" x2="322.3889172237484" y2="133.3810468251222" 
                       stroke="#bdc3c7" stroke-width="1"/><line x1="205.80545467858042" y1="153.3810468251222" x2="322.3889172237484" y2="153.3810468251222" 
                       stroke="#bdc3c7" stroke-width="1"/><rect x="205.80545467858042" y="73.38104682512221" width="116.583462545168" height="97.47762380095082" 
                     fill="#ecf0f1" stroke="#2c3e50" stroke-width="3"/><line x1="225.80545467858042" y1="73.38104682512221" x2="225.80545467858042" y2="170.85867062607304" 
                       stroke="#bdc3c7" stroke-width="1"/><line x1="245.80545467858042" y1="73.38104682512221" x2="245.80545467858042" y2="170.85867062607304" 
                       stroke="#bdc3c7" stroke-width="1"/><line x1="265.8054546785804" y1="73.38104682512221" x2="265.8054546785804" y2="170.85867062607304" 
                       stroke="#bdc3c7" stroke-width="1"/><line x1="285.8054546785804" y1="73.38104682512221" x2="285.8054546785804" y2="170.85867062607304" 
                       stroke="#bdc3c7" stroke-width="1"/><line x1="305.8054546785804" y1="73.38104682512221" x2="305.8054546785804" y2="170.85867062607304" 
                       stroke="#bdc3c7" stroke-width="1"/><line x1="205.80545467858042" y1="93.38104682512221" x2="322.3889172237484" y2="93.38104682512221" 
                       stroke="#bdc3c7" stroke-width="1"/><line x1="205.80545467858042" y1="113.38104682512221" x2="322.3889172237484" y2="113.38104682512221" 
                       stroke="#bdc3c7" stroke-width="1"/><line x1="205.80545467858042" y1="133.3810468251222" x2="322.3889172237484" y2="133.3810468251222" 
                       stroke="#bdc3c7" stroke-width="1"/><line x1="205.80545467858042" y1="153.3810468251222" x2="322.3889172237484" y2="153.3810468251222" 
                       stroke="#bdc3c7" stroke-width="1"/><text x="50" y="30" font-family="Arial, sans-serif" font-size="14" font-weight="bold" fill="#2c3e50">
                 PROJECT 21 - MODERN PLAN</text><text x="650" y="580" font-family="Arial, sans-serif" font-size="10" fill="#2c3e50">
                 SCHAAL 1:100</text><g transform="translate(720, 80)">
                 <line x1="0" y1="0" x2="0" y2="-30" stroke="#e74c3c" stroke-width="2"/>
                 <polygon points="0,-30 -5,-20 5,-20" fill="#e74c3c"/>
                 <text x="10" y="-10" font-family="Arial, sans-serif" font-size="10" fill="#2c3e50">N</text>
                 </g></svg>