<svg width="800" height="600" xmlns="http://www.w3.org/2000/svg" style="background: #f8f8f8;"><rect x="101.14863629934293" y="154.63096818131004" width="110.1081180088837" height="105.59784454028886" 
                     fill="#ecf0f1" stroke="#2c3e50" stroke-width="3"/><line x1="121.14863629934293" y1="154.63096818131004" x2="121.14863629934293" y2="260.2288127215989" 
                       stroke="#bdc3c7" stroke-width="1"/><line x1="141.1486362993429" y1="154.63096818131004" x2="141.1486362993429" y2="260.2288127215989" 
                       stroke="#bdc3c7" stroke-width="1"/><line x1="161.1486362993429" y1="154.63096818131004" x2="161.1486362993429" y2="260.2288127215989" 
                       stroke="#bdc3c7" stroke-width="1"/><line x1="181.1486362993429" y1="154.63096818131004" x2="181.1486362993429" y2="260.2288127215989" 
                       stroke="#bdc3c7" stroke-width="1"/><line x1="201.1486362993429" y1="154.63096818131004" x2="201.1486362993429" y2="260.2288127215989" 
                       stroke="#bdc3c7" stroke-width="1"/><line x1="101.14863629934293" y1="174.63096818131004" x2="211.25675430822662" y2="174.63096818131004" 
                       stroke="#bdc3c7" stroke-width="1"/><line x1="101.14863629934293" y1="194.63096818131004" x2="211.25675430822662" y2="194.63096818131004" 
                       stroke="#bdc3c7" stroke-width="1"/><line x1="101.14863629934293" y1="214.63096818131004" x2="211.25675430822662" y2="214.63096818131004" 
                       stroke="#bdc3c7" stroke-width="1"/><line x1="101.14863629934293" y1="234.63096818131004" x2="211.25675430822662" y2="234.63096818131004" 
                       stroke="#bdc3c7" stroke-width="1"/><line x1="101.14863629934293" y1="254.63096818131004" x2="211.25675430822662" y2="254.63096818131004" 
                       stroke="#bdc3c7" stroke-width="1"/><rect x="101.14863629934293" y="154.63096818131004" width="110.1081180088837" height="105.59784454028886" 
                     fill="#ecf0f1" stroke="#2c3e50" stroke-width="3"/><line x1="121.14863629934293" y1="154.63096818131004" x2="121.14863629934293" y2="260.2288127215989" 
                       stroke="#bdc3c7" stroke-width="1"/><line x1="141.1486362993429" y1="154.63096818131004" x2="141.1486362993429" y2="260.2288127215989" 
                       stroke="#bdc3c7" stroke-width="1"/><line x1="161.1486362993429" y1="154.63096818131004" x2="161.1486362993429" y2="260.2288127215989" 
                       stroke="#bdc3c7" stroke-width="1"/><line x1="181.1486362993429" y1="154.63096818131004" x2="181.1486362993429" y2="260.2288127215989" 
                       stroke="#bdc3c7" stroke-width="1"/><line x1="201.1486362993429" y1="154.63096818131004" x2="201.1486362993429" y2="260.2288127215989" 
                       stroke="#bdc3c7" stroke-width="1"/><line x1="101.14863629934293" y1="174.63096818131004" x2="211.25675430822662" y2="174.63096818131004" 
                       stroke="#bdc3c7" stroke-width="1"/><line x1="101.14863629934293" y1="194.63096818131004" x2="211.25675430822662" y2="194.63096818131004" 
                       stroke="#bdc3c7" stroke-width="1"/><line x1="101.14863629934293" y1="214.63096818131004" x2="211.25675430822662" y2="214.63096818131004" 
                       stroke="#bdc3c7" stroke-width="1"/><line x1="101.14863629934293" y1="234.63096818131004" x2="211.25675430822662" y2="234.63096818131004" 
                       stroke="#bdc3c7" stroke-width="1"/><line x1="101.14863629934293" y1="254.63096818131004" x2="211.25675430822662" y2="254.63096818131004" 
                       stroke="#bdc3c7" stroke-width="1"/><rect x="101.14863629934293" y="154.63096818131004" width="110.1081180088837" height="105.59784454028886" 
                     fill="#ecf0f1" stroke="#2c3e50" stroke-width="3"/><line x1="121.14863629934293" y1="154.63096818131004" x2="121.14863629934293" y2="260.2288127215989" 
                       stroke="#bdc3c7" stroke-width="1"/><line x1="141.1486362993429" y1="154.63096818131004" x2="141.1486362993429" y2="260.2288127215989" 
                       stroke="#bdc3c7" stroke-width="1"/><line x1="161.1486362993429" y1="154.63096818131004" x2="161.1486362993429" y2="260.2288127215989" 
                       stroke="#bdc3c7" stroke-width="1"/><line x1="181.1486362993429" y1="154.63096818131004" x2="181.1486362993429" y2="260.2288127215989" 
                       stroke="#bdc3c7" stroke-width="1"/><line x1="201.1486362993429" y1="154.63096818131004" x2="201.1486362993429" y2="260.2288127215989" 
                       stroke="#bdc3c7" stroke-width="1"/><line x1="101.14863629934293" y1="174.63096818131004" x2="211.25675430822662" y2="174.63096818131004" 
                       stroke="#bdc3c7" stroke-width="1"/><line x1="101.14863629934293" y1="194.63096818131004" x2="211.25675430822662" y2="194.63096818131004" 
                       stroke="#bdc3c7" stroke-width="1"/><line x1="101.14863629934293" y1="214.63096818131004" x2="211.25675430822662" y2="214.63096818131004" 
                       stroke="#bdc3c7" stroke-width="1"/><line x1="101.14863629934293" y1="234.63096818131004" x2="211.25675430822662" y2="234.63096818131004" 
                       stroke="#bdc3c7" stroke-width="1"/><line x1="101.14863629934293" y1="254.63096818131004" x2="211.25675430822662" y2="254.63096818131004" 
                       stroke="#bdc3c7" stroke-width="1"/><rect x="101.14863629934293" y="154.63096818131004" width="110.1081180088837" height="105.59784454028886" 
                     fill="#ecf0f1" stroke="#2c3e50" stroke-width="3"/><line x1="121.14863629934293" y1="154.63096818131004" x2="121.14863629934293" y2="260.2288127215989" 
                       stroke="#bdc3c7" stroke-width="1"/><line x1="141.1486362993429" y1="154.63096818131004" x2="141.1486362993429" y2="260.2288127215989" 
                       stroke="#bdc3c7" stroke-width="1"/><line x1="161.1486362993429" y1="154.63096818131004" x2="161.1486362993429" y2="260.2288127215989" 
                       stroke="#bdc3c7" stroke-width="1"/><line x1="181.1486362993429" y1="154.63096818131004" x2="181.1486362993429" y2="260.2288127215989" 
                       stroke="#bdc3c7" stroke-width="1"/><line x1="201.1486362993429" y1="154.63096818131004" x2="201.1486362993429" y2="260.2288127215989" 
                       stroke="#bdc3c7" stroke-width="1"/><line x1="101.14863629934293" y1="174.63096818131004" x2="211.25675430822662" y2="174.63096818131004" 
                       stroke="#bdc3c7" stroke-width="1"/><line x1="101.14863629934293" y1="194.63096818131004" x2="211.25675430822662" y2="194.63096818131004" 
                       stroke="#bdc3c7" stroke-width="1"/><line x1="101.14863629934293" y1="214.63096818131004" x2="211.25675430822662" y2="214.63096818131004" 
                       stroke="#bdc3c7" stroke-width="1"/><line x1="101.14863629934293" y1="234.63096818131004" x2="211.25675430822662" y2="234.63096818131004" 
                       stroke="#bdc3c7" stroke-width="1"/><line x1="101.14863629934293" y1="254.63096818131004" x2="211.25675430822662" y2="254.63096818131004" 
                       stroke="#bdc3c7" stroke-width="1"/><text x="50" y="30" font-family="Arial, sans-serif" font-size="14" font-weight="bold" fill="#2c3e50">
                 PROJECT 49 - MODERN PLAN</text><text x="650" y="580" font-family="Arial, sans-serif" font-size="10" fill="#2c3e50">
                 SCHAAL 1:100</text><g transform="translate(720, 80)">
                 <line x1="0" y1="0" x2="0" y2="-30" stroke="#e74c3c" stroke-width="2"/>
                 <polygon points="0,-30 -5,-20 5,-20" fill="#e74c3c"/>
                 <text x="10" y="-10" font-family="Arial, sans-serif" font-size="10" fill="#2c3e50">N</text>
                 </g></svg>